ISO-10303-21;
HEADER;
FILE_DESCRIPTION(('FreeCAD Model'),'2;1');
FILE_NAME('Open CASCADE Shape Model','2026-09-12T15:33:40',('FreeCAD'),(
    'FreeCAD'),'Open CASCADE STEP processor 7.8','FreeCAD','Unknown');
FILE_SCHEMA(('AUTOMOTIVE_DESIGN { 1 0 10303 214 1 1 1 1 }'));
ENDSEC;
DATA;
#1 = APPLICATION_PROTOCOL_DEFINITION('international standard',
  'automotive_design',2000,#2);
#2 = APPLICATION_CONTEXT(
  'core data for automotive mechanical design processes');
#3 = SHAPE_DEFINITION_REPRESENTATION(#4,#10);
#4 = PRODUCT_DEFINITION_SHAPE('','',#5);
#5 = PRODUCT_DEFINITION('design','',#6,#9);
#6 = PRODUCT_DEFINITION_FORMATION('','',#7);
#7 = PRODUCT('Open CASCADE STEP translator 7.8 2',
  'Open CASCADE STEP translator 7.8 2','',(#8));
#8 = PRODUCT_CONTEXT('',#2,'mechanical');
#9 = PRODUCT_DEFINITION_CONTEXT('part definition',#2,'design');
#10 = ADVANCED_BREP_SHAPE_REPRESENTATION('',(#11,#15),#1614);
#11 = AXIS2_PLACEMENT_3D('',#12,#13,#14);
#12 = CARTESIAN_POINT('',(0.,0.,0.));
#13 = DIRECTION('',(0.,0.,1.));
#14 = DIRECTION('',(1.,0.,-0.));
#15 = MANIFOLD_SOLID_BREP('',#16);
#16 = CLOSED_SHELL('',(#17,#193,#225,#272,#297,#338,#363,#404,#452,#476,
    #524,#559,#584,#619,#644,#687,#712,#753,#770,#810,#1065,#1077,#1370,
    #1394,#1418,#1442,#1467,#1492,#1517,#1542,#1554,#1566,#1578,#1598));
#17 = ADVANCED_FACE('',(#18),#188,.F.);
#18 = FACE_BOUND('',#19,.F.);
#19 = EDGE_LOOP('',(#20,#30,#39,#47,#55,#63,#72,#80,#89,#97,#106,#114,
    #123,#131,#139,#147,#156,#164,#173,#181));
#20 = ORIENTED_EDGE('',*,*,#21,.T.);
#21 = EDGE_CURVE('',#22,#24,#26,.T.);
#22 = VERTEX_POINT('',#23);
#23 = CARTESIAN_POINT('',(-6.,25.937955922661,10.4));
#24 = VERTEX_POINT('',#25);
#25 = CARTESIAN_POINT('',(-6.,-25.93795592266,10.4));
#26 = LINE('',#27,#28);
#27 = CARTESIAN_POINT('',(-6.,-5.5,10.4));
#28 = VECTOR('',#29,1.);
#29 = DIRECTION('',(0.,-1.,0.));
#30 = ORIENTED_EDGE('',*,*,#31,.T.);
#31 = EDGE_CURVE('',#24,#32,#34,.T.);
#32 = VERTEX_POINT('',#33);
#33 = CARTESIAN_POINT('',(7.015215167428,-37.89493456125,10.4));
#34 = CIRCLE('',#35,12.);
#35 = AXIS2_PLACEMENT_3D('',#36,#37,#38);
#36 = CARTESIAN_POINT('',(6.,-25.93795592266,10.4));
#37 = DIRECTION('',(-0.,0.,1.));
#38 = DIRECTION('',(8.460126395233E-02,-0.99641488655,0.));
#39 = ORIENTED_EDGE('',*,*,#40,.T.);
#40 = EDGE_CURVE('',#32,#41,#43,.T.);
#41 = VERTEX_POINT('',#42);
#42 = CARTESIAN_POINT('',(42.672765470442,-34.86740670534,10.4));
#43 = LINE('',#44,#45);
#44 = CARTESIAN_POINT('',(-13.41353715649,-39.629451268,10.4));
#45 = VECTOR('',#46,1.);
#46 = DIRECTION('',(0.99641488655,8.460126395233E-02,0.));
#47 = ORIENTED_EDGE('',*,*,#48,.T.);
#48 = EDGE_CURVE('',#41,#49,#51,.T.);
#49 = VERTEX_POINT('',#50);
#50 = CARTESIAN_POINT('',(42.469722436957,-32.47601097762,10.4));
#51 = LINE('',#52,#53);
#52 = CARTESIAN_POINT('',(42.783850937328,-36.17574664866,10.4));
#53 = VECTOR('',#54,1.);
#54 = DIRECTION('',(-8.460126395232E-02,0.99641488655,0.));
#55 = ORIENTED_EDGE('',*,*,#56,.F.);
#56 = EDGE_CURVE('',#57,#49,#59,.T.);
#57 = VERTEX_POINT('',#58);
#58 = CARTESIAN_POINT('',(6.812172133942,-35.50353883353,10.4));
#59 = LINE('',#60,#61);
#60 = CARTESIAN_POINT('',(-7.108972606262,-36.68552282091,10.4));
#61 = VECTOR('',#62,1.);
#62 = DIRECTION('',(0.99641488655,8.460126395233E-02,0.));
#63 = ORIENTED_EDGE('',*,*,#64,.T.);
#64 = EDGE_CURVE('',#57,#65,#67,.T.);
#65 = VERTEX_POINT('',#66);
#66 = CARTESIAN_POINT('',(-3.6,-25.93795592266,10.4));
#67 = CIRCLE('',#68,9.6);
#68 = AXIS2_PLACEMENT_3D('',#69,#70,#71);
#69 = CARTESIAN_POINT('',(6.,-25.93795592266,10.4));
#70 = DIRECTION('',(-0.,-0.,-1.));
#71 = DIRECTION('',(0.,-1.,0.));
#72 = ORIENTED_EDGE('',*,*,#73,.F.);
#73 = EDGE_CURVE('',#74,#65,#76,.T.);
#74 = VERTEX_POINT('',#75);
#75 = CARTESIAN_POINT('',(-3.6,25.937955922661,10.4));
#76 = LINE('',#77,#78);
#77 = CARTESIAN_POINT('',(-3.6,-12.03102203867,10.4));
#78 = VECTOR('',#79,1.);
#79 = DIRECTION('',(0.,-1.,0.));
#80 = ORIENTED_EDGE('',*,*,#81,.T.);
#81 = EDGE_CURVE('',#74,#82,#84,.T.);
#82 = VERTEX_POINT('',#83);
#83 = CARTESIAN_POINT('',(6.812172133942,35.503538833537,10.4));
#84 = CIRCLE('',#85,9.6);
#85 = AXIS2_PLACEMENT_3D('',#86,#87,#88);
#86 = CARTESIAN_POINT('',(6.,25.937955922661,10.4));
#87 = DIRECTION('',(-0.,-0.,-1.));
#88 = DIRECTION('',(0.,-1.,0.));
#89 = ORIENTED_EDGE('',*,*,#90,.F.);
#90 = EDGE_CURVE('',#91,#82,#93,.T.);
#91 = VERTEX_POINT('',#92);
#92 = CARTESIAN_POINT('',(88.812172133942,28.541274682594,10.4));
#93 = LINE('',#94,#95);
#94 = CARTESIAN_POINT('',(38.105925334889,32.846522052325,10.4));
#95 = VECTOR('',#96,1.);
#96 = DIRECTION('',(-0.99641488655,8.460126395233E-02,0.));
#97 = ORIENTED_EDGE('',*,*,#98,.T.);
#98 = EDGE_CURVE('',#91,#99,#101,.T.);
#99 = VERTEX_POINT('',#100);
#100 = CARTESIAN_POINT('',(97.6,18.975691771717,10.4));
#101 = CIRCLE('',#102,9.6);
#102 = AXIS2_PLACEMENT_3D('',#103,#104,#105);
#103 = CARTESIAN_POINT('',(88.,18.975691771717,10.4));
#104 = DIRECTION('',(-0.,-0.,-1.));
#105 = DIRECTION('',(0.,-1.,0.));
#106 = ORIENTED_EDGE('',*,*,#107,.F.);
#107 = EDGE_CURVE('',#108,#99,#110,.T.);
#108 = VERTEX_POINT('',#109);
#109 = CARTESIAN_POINT('',(97.6,-18.97569177171,10.4));
#110 = LINE('',#111,#112);
#111 = CARTESIAN_POINT('',(97.6,-34.48784588585,10.4));
#112 = VECTOR('',#113,1.);
#113 = DIRECTION('',(0.,1.,0.));
#114 = ORIENTED_EDGE('',*,*,#115,.T.);
#115 = EDGE_CURVE('',#108,#116,#118,.T.);
#116 = VERTEX_POINT('',#117);
#117 = CARTESIAN_POINT('',(88.812172133942,-28.54127468259,10.4));
#118 = CIRCLE('',#119,9.6);
#119 = AXIS2_PLACEMENT_3D('',#120,#121,#122);
#120 = CARTESIAN_POINT('',(88.,-18.97569177171,10.4));
#121 = DIRECTION('',(-0.,-0.,-1.));
#122 = DIRECTION('',(0.,-1.,0.));
#123 = ORIENTED_EDGE('',*,*,#124,.F.);
#124 = EDGE_CURVE('',#125,#116,#127,.T.);
#125 = VERTEX_POINT('',#126);
#126 = CARTESIAN_POINT('',(55.124191496137,-31.40157492542,10.4));
#127 = LINE('',#128,#129);
#128 = CARTESIAN_POINT('',(-7.108972606262,-36.68552282091,10.4));
#129 = VECTOR('',#130,1.);
#130 = DIRECTION('',(0.99641488655,8.460126395233E-02,0.));
#131 = ORIENTED_EDGE('',*,*,#132,.F.);
#132 = EDGE_CURVE('',#133,#125,#135,.T.);
#133 = VERTEX_POINT('',#134);
#134 = CARTESIAN_POINT('',(55.327234529622,-33.79297065314,10.4));
#135 = LINE('',#136,#137);
#136 = CARTESIAN_POINT('',(55.438319996508,-35.10131059646,10.4));
#137 = VECTOR('',#138,1.);
#138 = DIRECTION('',(-8.460126395232E-02,0.99641488655,0.));
#139 = ORIENTED_EDGE('',*,*,#140,.T.);
#140 = EDGE_CURVE('',#133,#141,#143,.T.);
#141 = VERTEX_POINT('',#142);
#142 = CARTESIAN_POINT('',(89.015215167428,-30.93267041031,10.4));
#143 = LINE('',#144,#145);
#144 = CARTESIAN_POINT('',(-13.41353715649,-39.629451268,10.4));
#145 = VECTOR('',#146,1.);
#146 = DIRECTION('',(0.99641488655,8.460126395233E-02,0.));
#147 = ORIENTED_EDGE('',*,*,#148,.T.);
#148 = EDGE_CURVE('',#141,#149,#151,.T.);
#149 = VERTEX_POINT('',#150);
#150 = CARTESIAN_POINT('',(100.,-18.97569177171,10.4));
#151 = CIRCLE('',#152,12.);
#152 = AXIS2_PLACEMENT_3D('',#153,#154,#155);
#153 = CARTESIAN_POINT('',(88.,-18.97569177171,10.4));
#154 = DIRECTION('',(-0.,0.,1.));
#155 = DIRECTION('',(8.460126395233E-02,-0.99641488655,0.));
#156 = ORIENTED_EDGE('',*,*,#157,.T.);
#157 = EDGE_CURVE('',#149,#158,#160,.T.);
#158 = VERTEX_POINT('',#159);
#159 = CARTESIAN_POINT('',(100.,18.975691771717,10.4));
#160 = LINE('',#161,#162);
#161 = CARTESIAN_POINT('',(100.,-40.,10.4));
#162 = VECTOR('',#163,1.);
#163 = DIRECTION('',(0.,1.,0.));
#164 = ORIENTED_EDGE('',*,*,#165,.T.);
#165 = EDGE_CURVE('',#158,#166,#168,.T.);
#166 = VERTEX_POINT('',#167);
#167 = CARTESIAN_POINT('',(89.015215167428,30.932670410313,10.4));
#168 = CIRCLE('',#169,12.);
#169 = AXIS2_PLACEMENT_3D('',#170,#171,#172);
#170 = CARTESIAN_POINT('',(88.,18.975691771717,10.4));
#171 = DIRECTION('',(0.,0.,1.));
#172 = DIRECTION('',(1.,0.,0.));
#173 = ORIENTED_EDGE('',*,*,#174,.T.);
#174 = EDGE_CURVE('',#166,#175,#177,.T.);
#175 = VERTEX_POINT('',#176);
#176 = CARTESIAN_POINT('',(7.015215167428,37.894934561256,10.4));
#177 = LINE('',#178,#179);
#178 = CARTESIAN_POINT('',(43.80136078466,34.771582574887,10.4));
#179 = VECTOR('',#180,1.);
#180 = DIRECTION('',(-0.99641488655,8.460126395233E-02,0.));
#181 = ORIENTED_EDGE('',*,*,#182,.T.);
#182 = EDGE_CURVE('',#175,#22,#183,.T.);
#183 = CIRCLE('',#184,12.);
#184 = AXIS2_PLACEMENT_3D('',#185,#186,#187);
#185 = CARTESIAN_POINT('',(6.,25.937955922661,10.4));
#186 = DIRECTION('',(0.,-0.,1.));
#187 = DIRECTION('',(8.460126395233E-02,0.99641488655,0.));
#188 = PLANE('',#189);
#189 = AXIS2_PLACEMENT_3D('',#190,#191,#192);
#190 = CARTESIAN_POINT('',(-20.,-50.,10.4));
#191 = DIRECTION('',(0.,0.,1.));
#192 = DIRECTION('',(1.,0.,0.));
#193 = ADVANCED_FACE('',(#194),#220,.F.);
#194 = FACE_BOUND('',#195,.T.);
#195 = EDGE_LOOP('',(#196,#197,#205,#214));
#196 = ORIENTED_EDGE('',*,*,#21,.T.);
#197 = ORIENTED_EDGE('',*,*,#198,.T.);
#198 = EDGE_CURVE('',#24,#199,#201,.T.);
#199 = VERTEX_POINT('',#200);
#200 = CARTESIAN_POINT('',(-6.,-25.93795592266,22.128126335344));
#201 = LINE('',#202,#203);
#202 = CARTESIAN_POINT('',(-6.,-25.93795592266,-30.));
#203 = VECTOR('',#204,1.);
#204 = DIRECTION('',(0.,0.,1.));
#205 = ORIENTED_EDGE('',*,*,#206,.T.);
#206 = EDGE_CURVE('',#199,#207,#209,.T.);
#207 = VERTEX_POINT('',#208);
#208 = CARTESIAN_POINT('',(-6.,25.937955922661,22.128126335344));
#209 = CIRCLE('',#210,87.6);
#210 = AXIS2_PLACEMENT_3D('',#211,#212,#213);
#211 = CARTESIAN_POINT('',(-6.,0.,105.8));
#212 = DIRECTION('',(1.,0.,-0.));
#213 = DIRECTION('',(0.,0.,1.));
#214 = ORIENTED_EDGE('',*,*,#215,.F.);
#215 = EDGE_CURVE('',#22,#207,#216,.T.);
#216 = LINE('',#217,#218);
#217 = CARTESIAN_POINT('',(-6.,25.937955922661,-30.));
#218 = VECTOR('',#219,1.);
#219 = DIRECTION('',(0.,0.,1.));
#220 = PLANE('',#221);
#221 = AXIS2_PLACEMENT_3D('',#222,#223,#224);
#222 = CARTESIAN_POINT('',(-6.,39.,-30.));
#223 = DIRECTION('',(1.,0.,0.));
#224 = DIRECTION('',(0.,-1.,0.));
#225 = ADVANCED_FACE('',(#226),#267,.T.);
#226 = FACE_BOUND('',#227,.T.);
#227 = EDGE_LOOP('',(#228,#229,#260,#266));
#228 = ORIENTED_EDGE('',*,*,#215,.T.);
#229 = ORIENTED_EDGE('',*,*,#230,.F.);
#230 = EDGE_CURVE('',#231,#207,#233,.T.);
#231 = VERTEX_POINT('',#232);
#232 = CARTESIAN_POINT('',(7.015215167428,37.894934561256,
    26.820674005167));
#233 = B_SPLINE_CURVE_WITH_KNOTS('',7,(#234,#235,#236,#237,#238,#239,
    #240,#241,#242,#243,#244,#245,#246,#247,#248,#249,#250,#251,#252,
    #253,#254,#255,#256,#257,#258,#259),.UNSPECIFIED.,.F.,.F.,(8,6,6,6,8
    ),(0.,5.551806255961E-02,0.467128354766,0.744739958824,1.),
  .UNSPECIFIED.);
#234 = CARTESIAN_POINT('',(7.015215167428,37.894934561256,
    26.820674005167));
#235 = CARTESIAN_POINT('',(6.872413590274,37.907059223467,
    26.826491518488));
#236 = CARTESIAN_POINT('',(6.72948836084,37.917190324983,26.831355176567
    ));
#237 = CARTESIAN_POINT('',(6.586463915968,37.925328074744,
    26.835263498675));
#238 = CARTESIAN_POINT('',(6.44336466953,37.931472629729,26.838215368923
    ));
#239 = CARTESIAN_POINT('',(6.300215012423,37.935624094947,26.84021003626
    ));
#240 = CARTESIAN_POINT('',(6.157039312575,37.937782523444,
    26.841247114474));
#241 = CARTESIAN_POINT('',(4.952346297119,37.939174137048,
    26.841915754943));
#242 = CARTESIAN_POINT('',(3.891327691478,37.830848614013,
    26.789867710127));
#243 = CARTESIAN_POINT('',(2.840174993998,37.613188195043,
    26.685277718979));
#244 = CARTESIAN_POINT('',(1.808438861982,37.285928129141,
    26.529188915807));
#245 = CARTESIAN_POINT('',(0.806335173186,36.848496672683,
    26.323661294517));
#246 = CARTESIAN_POINT('',(-0.154642993132,36.300225564175,
    26.071869115863));
#247 = CARTESIAN_POINT('',(-1.672137754205,35.195912434621,
    25.580022136818));
#248 = CARTESIAN_POINT('',(-2.259003357841,34.700124934011,
    25.362661284054));
#249 = CARTESIAN_POINT('',(-2.817098575876,34.153195353434,
    25.12737042582));
#250 = CARTESIAN_POINT('',(-3.341525272799,33.555129723257,
    24.87575722142));
#251 = CARTESIAN_POINT('',(-3.826783167818,32.906237123653,
    24.609760770824));
#252 = CARTESIAN_POINT('',(-4.266653947976,32.207301269457,
    24.331654852558));
#253 = CARTESIAN_POINT('',(-5.010309000564,30.772458690087,
    23.779525976075));
#254 = CARTESIAN_POINT('',(-5.323526514826,30.041495085359,
    23.505990758405));
#255 = CARTESIAN_POINT('',(-5.585457107482,29.271707838881,
    23.226916856988));
#256 = CARTESIAN_POINT('',(-5.789090337392,28.469099689921,
    22.946076288211));
#257 = CARTESIAN_POINT('',(-5.928720705558,27.640674890648,
    22.667167232312));
#258 = CARTESIAN_POINT('',(-6.,26.794205783793,22.393560467318));
#259 = CARTESIAN_POINT('',(-6.,25.937955922661,22.128126335344));
#260 = ORIENTED_EDGE('',*,*,#261,.F.);
#261 = EDGE_CURVE('',#175,#231,#262,.T.);
#262 = LINE('',#263,#264);
#263 = CARTESIAN_POINT('',(7.015215167428,37.894934561256,-30.));
#264 = VECTOR('',#265,1.);
#265 = DIRECTION('',(0.,0.,1.));
#266 = ORIENTED_EDGE('',*,*,#182,.T.);
#267 = CYLINDRICAL_SURFACE('',#268,12.);
#268 = AXIS2_PLACEMENT_3D('',#269,#270,#271);
#269 = CARTESIAN_POINT('',(6.,25.937955922661,-30.));
#270 = DIRECTION('',(0.,0.,1.));
#271 = DIRECTION('',(8.460126395233E-02,0.99641488655,0.));
#272 = ADVANCED_FACE('',(#273),#292,.F.);
#273 = FACE_BOUND('',#274,.T.);
#274 = EDGE_LOOP('',(#275,#284,#290,#291));
#275 = ORIENTED_EDGE('',*,*,#276,.T.);
#276 = EDGE_CURVE('',#231,#277,#279,.T.);
#277 = VERTEX_POINT('',#278);
#278 = CARTESIAN_POINT('',(89.015215167428,30.932670410313,
    23.843121696303));
#279 = ELLIPSE('',#280,1.035445523005E+03,87.6);
#280 = AXIS2_PLACEMENT_3D('',#281,#282,#283);
#281 = CARTESIAN_POINT('',(453.33333333333,0.,105.8));
#282 = DIRECTION('',(-8.460126395233E-02,-0.99641488655,0.));
#283 = DIRECTION('',(0.99641488655,-8.460126395233E-02,0.));
#284 = ORIENTED_EDGE('',*,*,#285,.F.);
#285 = EDGE_CURVE('',#166,#277,#286,.T.);
#286 = LINE('',#287,#288);
#287 = CARTESIAN_POINT('',(89.015215167428,30.932670410313,-30.));
#288 = VECTOR('',#289,1.);
#289 = DIRECTION('',(0.,0.,1.));
#290 = ORIENTED_EDGE('',*,*,#174,.T.);
#291 = ORIENTED_EDGE('',*,*,#261,.T.);
#292 = PLANE('',#293);
#293 = AXIS2_PLACEMENT_3D('',#294,#295,#296);
#294 = CARTESIAN_POINT('',(100.,30.,-30.));
#295 = DIRECTION('',(-8.460126395233E-02,-0.99641488655,0.));
#296 = DIRECTION('',(-0.99641488655,8.460126395233E-02,0.));
#297 = ADVANCED_FACE('',(#298),#333,.T.);
#298 = FACE_BOUND('',#299,.T.);
#299 = EDGE_LOOP('',(#300,#301,#326,#332));
#300 = ORIENTED_EDGE('',*,*,#285,.T.);
#301 = ORIENTED_EDGE('',*,*,#302,.F.);
#302 = EDGE_CURVE('',#303,#277,#305,.T.);
#303 = VERTEX_POINT('',#304);
#304 = CARTESIAN_POINT('',(100.,18.975691771717,20.279925621029));
#305 = B_SPLINE_CURVE_WITH_KNOTS('',7,(#306,#307,#308,#309,#310,#311,
    #312,#313,#314,#315,#316,#317,#318,#319,#320,#321,#322,#323,#324,
    #325),.UNSPECIFIED.,.F.,.F.,(8,6,6,8),(0.,0.17176982239,
    0.47581544968,1.),.UNSPECIFIED.);
#306 = CARTESIAN_POINT('',(100.,18.975691771717,20.279925621029));
#307 = CARTESIAN_POINT('',(100.,19.495959134846,20.395365571161));
#308 = CARTESIAN_POINT('',(99.973684072158,20.014073986883,
    20.51420228505));
#309 = CARTESIAN_POINT('',(99.921444163706,20.527616471156,
    20.635863198188));
#310 = CARTESIAN_POINT('',(99.844040666419,21.034208224925,
    20.759677332161));
#311 = CARTESIAN_POINT('',(99.742596120487,21.531557520706,
    20.884888905147));
#312 = CARTESIAN_POINT('',(99.618590268305,22.017500196225,
    21.010680319546));
#313 = CARTESIAN_POINT('',(99.217666625368,23.326461283326,
    21.35839190388));
#314 = CARTESIAN_POINT('',(98.896823004031,24.11993354371,
    21.579490371586));
#315 = CARTESIAN_POINT('',(98.519506582765,24.866881485093,
    21.79675607744));
#316 = CARTESIAN_POINT('',(98.09335078685,25.564859148276,
    22.007586944925));
#317 = CARTESIAN_POINT('',(97.625539768686,26.212314793927,
    22.209652715749));
#318 = CARTESIAN_POINT('',(97.122868642523,26.808445159345,
    22.400983171898));
#319 = CARTESIAN_POINT('',(95.67612685389,28.292199259412,
    22.888670434348));
#320 = CARTESIAN_POINT('',(94.672078682384,29.082369560248,
    23.162085841998));
#321 = CARTESIAN_POINT('',(93.604699558398,29.727437699473,
    23.393898614236));
#322 = CARTESIAN_POINT('',(92.492116707255,30.232007346241,
    23.579933914912));
#323 = CARTESIAN_POINT('',(91.348670920602,30.599808492346,
    23.717651932919));
#324 = CARTESIAN_POINT('',(90.186122444264,30.833253754732,
    23.805599249084));
#325 = CARTESIAN_POINT('',(89.015215167428,30.932670410313,
    23.843121696303));
#326 = ORIENTED_EDGE('',*,*,#327,.F.);
#327 = EDGE_CURVE('',#158,#303,#328,.T.);
#328 = LINE('',#329,#330);
#329 = CARTESIAN_POINT('',(100.,18.975691771717,-30.));
#330 = VECTOR('',#331,1.);
#331 = DIRECTION('',(0.,0.,1.));
#332 = ORIENTED_EDGE('',*,*,#165,.T.);
#333 = CYLINDRICAL_SURFACE('',#334,12.);
#334 = AXIS2_PLACEMENT_3D('',#335,#336,#337);
#335 = CARTESIAN_POINT('',(88.,18.975691771717,-30.));
#336 = DIRECTION('',(0.,0.,1.));
#337 = DIRECTION('',(1.,0.,0.));
#338 = ADVANCED_FACE('',(#339),#358,.F.);
#339 = FACE_BOUND('',#340,.T.);
#340 = EDGE_LOOP('',(#341,#350,#356,#357));
#341 = ORIENTED_EDGE('',*,*,#342,.F.);
#342 = EDGE_CURVE('',#343,#303,#345,.T.);
#343 = VERTEX_POINT('',#344);
#344 = CARTESIAN_POINT('',(100.,-18.97569177171,20.279925621029));
#345 = CIRCLE('',#346,87.6);
#346 = AXIS2_PLACEMENT_3D('',#347,#348,#349);
#347 = CARTESIAN_POINT('',(100.,0.,105.8));
#348 = DIRECTION('',(1.,0.,-0.));
#349 = DIRECTION('',(0.,0.,1.));
#350 = ORIENTED_EDGE('',*,*,#351,.F.);
#351 = EDGE_CURVE('',#149,#343,#352,.T.);
#352 = LINE('',#353,#354);
#353 = CARTESIAN_POINT('',(100.,-18.97569177171,-30.));
#354 = VECTOR('',#355,1.);
#355 = DIRECTION('',(0.,0.,1.));
#356 = ORIENTED_EDGE('',*,*,#157,.T.);
#357 = ORIENTED_EDGE('',*,*,#327,.T.);
#358 = PLANE('',#359);
#359 = AXIS2_PLACEMENT_3D('',#360,#361,#362);
#360 = CARTESIAN_POINT('',(100.,-30.,-30.));
#361 = DIRECTION('',(-1.,0.,0.));
#362 = DIRECTION('',(0.,1.,0.));
#363 = ADVANCED_FACE('',(#364),#399,.T.);
#364 = FACE_BOUND('',#365,.T.);
#365 = EDGE_LOOP('',(#366,#367,#392,#398));
#366 = ORIENTED_EDGE('',*,*,#351,.T.);
#367 = ORIENTED_EDGE('',*,*,#368,.F.);
#368 = EDGE_CURVE('',#369,#343,#371,.T.);
#369 = VERTEX_POINT('',#370);
#370 = CARTESIAN_POINT('',(89.015215167428,-30.93267041031,
    23.843121696303));
#371 = B_SPLINE_CURVE_WITH_KNOTS('',7,(#372,#373,#374,#375,#376,#377,
    #378,#379,#380,#381,#382,#383,#384,#385,#386,#387,#388,#389,#390,
    #391),.UNSPECIFIED.,.F.,.F.,(8,6,6,8),(0.,0.524295120211,
    0.691338997386,1.),.UNSPECIFIED.);
#372 = CARTESIAN_POINT('',(89.015215167428,-30.93267041031,
    23.843121696303));
#373 = CARTESIAN_POINT('',(90.186118670546,-30.83325407514,
    23.805599370016));
#374 = CARTESIAN_POINT('',(91.348663194326,-30.59981001973,
    23.717652510685));
#375 = CARTESIAN_POINT('',(92.49210875036,-30.23201071654,
    23.579935166271));
#376 = CARTESIAN_POINT('',(93.604694714728,-29.72744124687,
    23.393899919289));
#377 = CARTESIAN_POINT('',(94.672079423558,-29.08237070424,
    23.162086112022));
#378 = CARTESIAN_POINT('',(95.676130505525,-28.29219551435,
    22.888669203406));
#379 = CARTESIAN_POINT('',(96.883493053219,-27.05394474667,
    22.481675128654));
#380 = CARTESIAN_POINT('',(97.16630870284,-26.73957561889,
    22.379737430327));
#381 = CARTESIAN_POINT('',(97.439313653784,-26.40997701745,
    22.274431211785));
#382 = CARTESIAN_POINT('',(97.701549566113,-26.06513131234,
    22.166016116896));
#383 = CARTESIAN_POINT('',(97.951992483876,-25.7050638265,
    22.054781344765));
#384 = CARTESIAN_POINT('',(98.189546600463,-25.32985235771,
    21.941045330474));
#385 = CARTESIAN_POINT('',(98.826001899187,-24.21860245425,
    21.611015914926));
#386 = CARTESIAN_POINT('',(99.193806823421,-23.44135424366,
    21.388041441636));
#387 = CARTESIAN_POINT('',(99.504283586915,-22.61372573263,
    21.160086023246));
#388 = CARTESIAN_POINT('',(99.747227294254,-21.74347835995,
    20.931401360609));
#389 = CARTESIAN_POINT('',(99.914477042042,-20.83993481065,
    20.706166012382));
#390 = CARTESIAN_POINT('',(100.,-19.91359697551,20.488033485615));
#391 = CARTESIAN_POINT('',(100.,-18.97569177171,20.279925621029));
#392 = ORIENTED_EDGE('',*,*,#393,.F.);
#393 = EDGE_CURVE('',#141,#369,#394,.T.);
#394 = LINE('',#395,#396);
#395 = CARTESIAN_POINT('',(89.015215167428,-30.93267041031,-30.));
#396 = VECTOR('',#397,1.);
#397 = DIRECTION('',(0.,0.,1.));
#398 = ORIENTED_EDGE('',*,*,#148,.T.);
#399 = CYLINDRICAL_SURFACE('',#400,12.);
#400 = AXIS2_PLACEMENT_3D('',#401,#402,#403);
#401 = CARTESIAN_POINT('',(88.,-18.97569177171,-30.));
#402 = DIRECTION('',(0.,0.,1.));
#403 = DIRECTION('',(8.460126395233E-02,-0.99641488655,0.));
#404 = ADVANCED_FACE('',(#405),#447,.F.);
#405 = FACE_BOUND('',#406,.F.);
#406 = EDGE_LOOP('',(#407,#416,#417,#418,#426,#434,#440,#441));
#407 = ORIENTED_EDGE('',*,*,#408,.F.);
#408 = EDGE_CURVE('',#369,#409,#411,.T.);
#409 = VERTEX_POINT('',#410);
#410 = CARTESIAN_POINT('',(7.015215167428,-37.89493456125,
    26.820674005167));
#411 = ELLIPSE('',#412,1.035445523005E+03,87.6);
#412 = AXIS2_PLACEMENT_3D('',#413,#414,#415);
#413 = CARTESIAN_POINT('',(453.33333333333,0.,105.8));
#414 = DIRECTION('',(-8.460126395233E-02,0.99641488655,0.));
#415 = DIRECTION('',(0.99641488655,8.460126395233E-02,0.));
#416 = ORIENTED_EDGE('',*,*,#393,.F.);
#417 = ORIENTED_EDGE('',*,*,#140,.F.);
#418 = ORIENTED_EDGE('',*,*,#419,.F.);
#419 = EDGE_CURVE('',#420,#133,#422,.T.);
#420 = VERTEX_POINT('',#421);
#421 = CARTESIAN_POINT('',(55.327234529622,-33.79297065314,11.5));
#422 = LINE('',#423,#424);
#423 = CARTESIAN_POINT('',(55.327234529622,-33.79297065314,-11.75));
#424 = VECTOR('',#425,1.);
#425 = DIRECTION('',(0.,0.,-1.));
#426 = ORIENTED_EDGE('',*,*,#427,.F.);
#427 = EDGE_CURVE('',#428,#420,#430,.T.);
#428 = VERTEX_POINT('',#429);
#429 = CARTESIAN_POINT('',(42.672765470442,-34.86740670534,11.5));
#430 = LINE('',#431,#432);
#431 = CARTESIAN_POINT('',(18.336382735221,-36.93370335267,11.5));
#432 = VECTOR('',#433,1.);
#433 = DIRECTION('',(0.99641488655,8.460126395233E-02,0.));
#434 = ORIENTED_EDGE('',*,*,#435,.T.);
#435 = EDGE_CURVE('',#428,#41,#436,.T.);
#436 = LINE('',#437,#438);
#437 = CARTESIAN_POINT('',(42.672765470442,-34.86740670534,-11.75));
#438 = VECTOR('',#439,1.);
#439 = DIRECTION('',(0.,0.,-1.));
#440 = ORIENTED_EDGE('',*,*,#40,.F.);
#441 = ORIENTED_EDGE('',*,*,#442,.T.);
#442 = EDGE_CURVE('',#32,#409,#443,.T.);
#443 = LINE('',#444,#445);
#444 = CARTESIAN_POINT('',(7.015215167428,-37.89493456125,-30.));
#445 = VECTOR('',#446,1.);
#446 = DIRECTION('',(0.,0.,1.));
#447 = PLANE('',#448);
#448 = AXIS2_PLACEMENT_3D('',#449,#450,#451);
#449 = CARTESIAN_POINT('',(-6.,-39.,-30.));
#450 = DIRECTION('',(-8.460126395233E-02,0.99641488655,0.));
#451 = DIRECTION('',(0.99641488655,8.460126395233E-02,0.));
#452 = ADVANCED_FACE('',(#453),#471,.F.);
#453 = FACE_BOUND('',#454,.F.);
#454 = EDGE_LOOP('',(#455,#463,#464,#465));
#455 = ORIENTED_EDGE('',*,*,#456,.T.);
#456 = EDGE_CURVE('',#457,#420,#459,.T.);
#457 = VERTEX_POINT('',#458);
#458 = CARTESIAN_POINT('',(55.124191496137,-31.40157492542,11.5));
#459 = LINE('',#460,#461);
#460 = CARTESIAN_POINT('',(54.722331150413,-26.66855307579,11.5));
#461 = VECTOR('',#462,1.);
#462 = DIRECTION('',(8.460126395232E-02,-0.99641488655,0.));
#463 = ORIENTED_EDGE('',*,*,#419,.T.);
#464 = ORIENTED_EDGE('',*,*,#132,.T.);
#465 = ORIENTED_EDGE('',*,*,#466,.F.);
#466 = EDGE_CURVE('',#457,#125,#467,.T.);
#467 = LINE('',#468,#469);
#468 = CARTESIAN_POINT('',(55.124191496137,-31.40157492542,-11.75));
#469 = VECTOR('',#470,1.);
#470 = DIRECTION('',(0.,0.,-1.));
#471 = PLANE('',#472);
#472 = AXIS2_PLACEMENT_3D('',#473,#474,#475);
#473 = CARTESIAN_POINT('',(54.722331150413,-26.66855307579,6.5));
#474 = DIRECTION('',(0.99641488655,8.460126395232E-02,0.));
#475 = DIRECTION('',(0.,0.,1.));
#476 = ADVANCED_FACE('',(#477),#519,.T.);
#477 = FACE_BOUND('',#478,.T.);
#478 = EDGE_LOOP('',(#479,#480,#488,#497,#503,#504,#505,#513));
#479 = ORIENTED_EDGE('',*,*,#56,.F.);
#480 = ORIENTED_EDGE('',*,*,#481,.T.);
#481 = EDGE_CURVE('',#57,#482,#484,.T.);
#482 = VERTEX_POINT('',#483);
#483 = CARTESIAN_POINT('',(6.812172133942,-35.50353883353,
    23.098738036862));
#484 = LINE('',#485,#486);
#485 = CARTESIAN_POINT('',(6.812172133942,-35.50353883353,-30.));
#486 = VECTOR('',#487,1.);
#487 = DIRECTION('',(0.,0.,1.));
#488 = ORIENTED_EDGE('',*,*,#489,.F.);
#489 = EDGE_CURVE('',#490,#482,#492,.T.);
#490 = VERTEX_POINT('',#491);
#491 = CARTESIAN_POINT('',(88.812172133942,-28.54127468259,
    20.445470890569));
#492 = ELLIPSE('',#493,1.063813893498E+03,90.);
#493 = AXIS2_PLACEMENT_3D('',#494,#495,#496);
#494 = CARTESIAN_POINT('',(424.96496284004,0.,105.8));
#495 = DIRECTION('',(-8.460126395233E-02,0.99641488655,0.));
#496 = DIRECTION('',(0.99641488655,8.460126395233E-02,0.));
#497 = ORIENTED_EDGE('',*,*,#498,.F.);
#498 = EDGE_CURVE('',#116,#490,#499,.T.);
#499 = LINE('',#500,#501);
#500 = CARTESIAN_POINT('',(88.812172133942,-28.54127468259,-30.));
#501 = VECTOR('',#502,1.);
#502 = DIRECTION('',(0.,0.,1.));
#503 = ORIENTED_EDGE('',*,*,#124,.F.);
#504 = ORIENTED_EDGE('',*,*,#466,.F.);
#505 = ORIENTED_EDGE('',*,*,#506,.F.);
#506 = EDGE_CURVE('',#507,#457,#509,.T.);
#507 = VERTEX_POINT('',#508);
#508 = CARTESIAN_POINT('',(42.469722436957,-32.47601097762,11.5));
#509 = LINE('',#510,#511);
#510 = CARTESIAN_POINT('',(24.640947285449,-33.98977490557,11.5));
#511 = VECTOR('',#512,1.);
#512 = DIRECTION('',(0.99641488655,8.460126395233E-02,0.));
#513 = ORIENTED_EDGE('',*,*,#514,.T.);
#514 = EDGE_CURVE('',#507,#49,#515,.T.);
#515 = LINE('',#516,#517);
#516 = CARTESIAN_POINT('',(42.469722436957,-32.47601097762,-11.75));
#517 = VECTOR('',#518,1.);
#518 = DIRECTION('',(0.,0.,-1.));
#519 = PLANE('',#520);
#520 = AXIS2_PLACEMENT_3D('',#521,#522,#523);
#521 = CARTESIAN_POINT('',(6.812172133942,-35.50353883353,-30.));
#522 = DIRECTION('',(-8.460126395233E-02,0.99641488655,0.));
#523 = DIRECTION('',(0.99641488655,8.460126395233E-02,0.));
#524 = ADVANCED_FACE('',(#525),#554,.F.);
#525 = FACE_BOUND('',#526,.T.);
#526 = EDGE_LOOP('',(#527,#535,#536,#537));
#527 = ORIENTED_EDGE('',*,*,#528,.F.);
#528 = EDGE_CURVE('',#108,#529,#531,.T.);
#529 = VERTEX_POINT('',#530);
#530 = CARTESIAN_POINT('',(97.6,-18.97569177171,17.823167130291));
#531 = LINE('',#532,#533);
#532 = CARTESIAN_POINT('',(97.6,-18.97569177171,-30.));
#533 = VECTOR('',#534,1.);
#534 = DIRECTION('',(0.,0.,1.));
#535 = ORIENTED_EDGE('',*,*,#115,.T.);
#536 = ORIENTED_EDGE('',*,*,#498,.T.);
#537 = ORIENTED_EDGE('',*,*,#538,.T.);
#538 = EDGE_CURVE('',#490,#529,#539,.T.);
#539 = B_SPLINE_CURVE_WITH_KNOTS('',7,(#540,#541,#542,#543,#544,#545,
    #546,#547,#548,#549,#550,#551,#552,#553),.UNSPECIFIED.,.F.,.F.,(8,6,
    8),(0.,0.506676744542,1.),.UNSPECIFIED.);
#540 = CARTESIAN_POINT('',(88.812172133942,-28.54127468259,
    20.445470890569));
#541 = CARTESIAN_POINT('',(89.71003723341,-28.46504085339,
    20.419979441175));
#542 = CARTESIAN_POINT('',(90.602236645702,-28.29025552307,
    20.361622303696));
#543 = CARTESIAN_POINT('',(91.481405363672,-28.01648047006,
    20.270662867595));
#544 = CARTESIAN_POINT('',(92.339412645318,-27.64173080069,
    20.147650479514));
#545 = CARTESIAN_POINT('',(93.166288682816,-27.16298779201,
    19.993605940903));
#546 = CARTESIAN_POINT('',(93.949374565503,-26.57652062289,
    19.810355158667));
#547 = CARTESIAN_POINT('',(95.374024295586,-25.19975867765,
    19.397019505305));
#548 = CARTESIAN_POINT('',(96.032581351409,-24.40189997262,
    19.164290419905));
#549 = CARTESIAN_POINT('',(96.613276628024,-23.48773200432,
    18.907660713561));
#550 = CARTESIAN_POINT('',(97.085529461818,-22.46764235004,
    18.635346569158));
#551 = CARTESIAN_POINT('',(97.422162261803,-21.35909109721,
    18.357550408143));
#552 = CARTESIAN_POINT('',(97.6,-20.18538194509,18.084084773271));
#553 = CARTESIAN_POINT('',(97.6,-18.97569177171,17.823167130291));
#554 = CYLINDRICAL_SURFACE('',#555,9.6);
#555 = AXIS2_PLACEMENT_3D('',#556,#557,#558);
#556 = CARTESIAN_POINT('',(88.,-18.97569177171,-30.));
#557 = DIRECTION('',(-0.,-0.,-1.));
#558 = DIRECTION('',(0.,-1.,0.));
#559 = ADVANCED_FACE('',(#560),#579,.T.);
#560 = FACE_BOUND('',#561,.T.);
#561 = EDGE_LOOP('',(#562,#563,#564,#573));
#562 = ORIENTED_EDGE('',*,*,#107,.F.);
#563 = ORIENTED_EDGE('',*,*,#528,.T.);
#564 = ORIENTED_EDGE('',*,*,#565,.T.);
#565 = EDGE_CURVE('',#529,#566,#568,.T.);
#566 = VERTEX_POINT('',#567);
#567 = CARTESIAN_POINT('',(97.6,18.975691771717,17.823167130291));
#568 = CIRCLE('',#569,90.);
#569 = AXIS2_PLACEMENT_3D('',#570,#571,#572);
#570 = CARTESIAN_POINT('',(97.6,0.,105.8));
#571 = DIRECTION('',(1.,0.,-0.));
#572 = DIRECTION('',(0.,0.,1.));
#573 = ORIENTED_EDGE('',*,*,#574,.F.);
#574 = EDGE_CURVE('',#99,#566,#575,.T.);
#575 = LINE('',#576,#577);
#576 = CARTESIAN_POINT('',(97.6,18.975691771717,-30.));
#577 = VECTOR('',#578,1.);
#578 = DIRECTION('',(0.,0.,1.));
#579 = PLANE('',#580);
#580 = AXIS2_PLACEMENT_3D('',#581,#582,#583);
#581 = CARTESIAN_POINT('',(97.6,-18.97569177171,-30.));
#582 = DIRECTION('',(-1.,0.,0.));
#583 = DIRECTION('',(0.,1.,0.));
#584 = ADVANCED_FACE('',(#585),#614,.F.);
#585 = FACE_BOUND('',#586,.T.);
#586 = EDGE_LOOP('',(#587,#595,#596,#597));
#587 = ORIENTED_EDGE('',*,*,#588,.F.);
#588 = EDGE_CURVE('',#91,#589,#591,.T.);
#589 = VERTEX_POINT('',#590);
#590 = CARTESIAN_POINT('',(88.812172133942,28.541274682594,
    20.445470890569));
#591 = LINE('',#592,#593);
#592 = CARTESIAN_POINT('',(88.812172133942,28.541274682594,-30.));
#593 = VECTOR('',#594,1.);
#594 = DIRECTION('',(0.,0.,1.));
#595 = ORIENTED_EDGE('',*,*,#98,.T.);
#596 = ORIENTED_EDGE('',*,*,#574,.T.);
#597 = ORIENTED_EDGE('',*,*,#598,.T.);
#598 = EDGE_CURVE('',#566,#589,#599,.T.);
#599 = B_SPLINE_CURVE_WITH_KNOTS('',7,(#600,#601,#602,#603,#604,#605,
    #606,#607,#608,#609,#610,#611,#612,#613),.UNSPECIFIED.,.F.,.F.,(8,6,
    8),(0.,0.453092758518,1.),.UNSPECIFIED.);
#600 = CARTESIAN_POINT('',(97.6,18.975691771717,17.823167130291));
#601 = CARTESIAN_POINT('',(97.6,20.083988084255,18.062215167512));
#602 = CARTESIAN_POINT('',(97.45072481126,21.164749416978,
    18.312371098055));
#603 = CARTESIAN_POINT('',(97.165526515074,22.19420258098,
    18.567175113845));
#604 = CARTESIAN_POINT('',(96.761843017069,23.152386665317,
    18.818843581001));
#605 = CARTESIAN_POINT('',(96.260966820005,24.023635836781,
    19.059083004975));
#606 = CARTESIAN_POINT('',(95.687598044878,24.797669972409,
    19.280825418055));
#607 = CARTESIAN_POINT('',(94.32351556734,26.282478759636,
    19.718944285425));
#608 = CARTESIAN_POINT('',(93.497291448233,26.963396405639,
    19.92954983506));
#609 = CARTESIAN_POINT('',(92.615013480655,27.517067624672,
    20.106775635773));
#610 = CARTESIAN_POINT('',(91.69356965334,27.948400526957,
    20.248049274094));
#611 = CARTESIAN_POINT('',(90.745949069475,28.261441821239,
    20.352002416285));
#612 = CARTESIAN_POINT('',(89.782422380251,28.4588949447,20.417924341463
    ));
#613 = CARTESIAN_POINT('',(88.812172133942,28.541274682594,
    20.445470890569));
#614 = CYLINDRICAL_SURFACE('',#615,9.6);
#615 = AXIS2_PLACEMENT_3D('',#616,#617,#618);
#616 = CARTESIAN_POINT('',(88.,18.975691771717,-30.));
#617 = DIRECTION('',(-0.,-0.,-1.));
#618 = DIRECTION('',(0.,-1.,0.));
#619 = ADVANCED_FACE('',(#620),#639,.T.);
#620 = FACE_BOUND('',#621,.T.);
#621 = EDGE_LOOP('',(#622,#623,#624,#633));
#622 = ORIENTED_EDGE('',*,*,#90,.F.);
#623 = ORIENTED_EDGE('',*,*,#588,.T.);
#624 = ORIENTED_EDGE('',*,*,#625,.F.);
#625 = EDGE_CURVE('',#626,#589,#628,.T.);
#626 = VERTEX_POINT('',#627);
#627 = CARTESIAN_POINT('',(6.812172133942,35.503538833537,
    23.098738036862));
#628 = ELLIPSE('',#629,1.063813893498E+03,90.);
#629 = AXIS2_PLACEMENT_3D('',#630,#631,#632);
#630 = CARTESIAN_POINT('',(424.96496284004,0.,105.8));
#631 = DIRECTION('',(-8.460126395233E-02,-0.99641488655,0.));
#632 = DIRECTION('',(0.99641488655,-8.460126395233E-02,0.));
#633 = ORIENTED_EDGE('',*,*,#634,.F.);
#634 = EDGE_CURVE('',#82,#626,#635,.T.);
#635 = LINE('',#636,#637);
#636 = CARTESIAN_POINT('',(6.812172133942,35.503538833537,-30.));
#637 = VECTOR('',#638,1.);
#638 = DIRECTION('',(0.,0.,1.));
#639 = PLANE('',#640);
#640 = AXIS2_PLACEMENT_3D('',#641,#642,#643);
#641 = CARTESIAN_POINT('',(88.812172133942,28.541274682594,-30.));
#642 = DIRECTION('',(-8.460126395233E-02,-0.99641488655,0.));
#643 = DIRECTION('',(-0.99641488655,8.460126395233E-02,0.));
#644 = ADVANCED_FACE('',(#645),#682,.F.);
#645 = FACE_BOUND('',#646,.T.);
#646 = EDGE_LOOP('',(#647,#655,#656,#657));
#647 = ORIENTED_EDGE('',*,*,#648,.F.);
#648 = EDGE_CURVE('',#74,#649,#651,.T.);
#649 = VERTEX_POINT('',#650);
#650 = CARTESIAN_POINT('',(-3.6,25.937955922661,19.618665347106));
#651 = LINE('',#652,#653);
#652 = CARTESIAN_POINT('',(-3.6,25.937955922661,-30.));
#653 = VECTOR('',#654,1.);
#654 = DIRECTION('',(0.,0.,1.));
#655 = ORIENTED_EDGE('',*,*,#81,.T.);
#656 = ORIENTED_EDGE('',*,*,#634,.T.);
#657 = ORIENTED_EDGE('',*,*,#658,.T.);
#658 = EDGE_CURVE('',#626,#649,#659,.T.);
#659 = B_SPLINE_CURVE_WITH_KNOTS('',6,(#660,#661,#662,#663,#664,#665,
    #666,#667,#668,#669,#670,#671,#672,#673,#674,#675,#676,#677,#678,
    #679,#680,#681),.UNSPECIFIED.,.F.,.F.,(7,5,5,5,7),(0.,
    5.5861202965E-02,0.437550272193,0.717446588077,1.),.UNSPECIFIED.);
#660 = CARTESIAN_POINT('',(6.812172133942,35.503538833537,
    23.098738036862));
#661 = CARTESIAN_POINT('',(6.678876382017,35.51485639738,23.103596651566
    ));
#662 = CARTESIAN_POINT('',(6.545450599224,35.52393997355,23.107498419377
    ));
#663 = CARTESIAN_POINT('',(6.411926963823,35.530790565442,
    23.110442142729));
#664 = CARTESIAN_POINT('',(6.278337574564,35.535408846329,
    23.112427017782));
#665 = CARTESIAN_POINT('',(6.144714450694,35.537795159361,
    23.113452634425));
#666 = CARTESIAN_POINT('',(5.098055652383,35.539004218104,
    23.113972277637));
#667 = CARTESIAN_POINT('',(4.185187010563,35.435855374143,
    23.069639450472));
#668 = CARTESIAN_POINT('',(3.282335648418,35.22860782241,22.980560831451
    ));
#669 = CARTESIAN_POINT('',(2.399653645922,34.916413183517,
    22.847523456376));
#670 = CARTESIAN_POINT('',(1.54858208218,34.497765845466,22.672220603894
    ));
#671 = CARTESIAN_POINT('',(0.153284262196,33.584757794628,
    22.300071654362));
#672 = CARTESIAN_POINT('',(-0.412709577289,33.140058628066,
    22.121313928937));
#673 = CARTESIAN_POINT('',(-0.948160044659,32.636404104429,
    21.922431671478));
#674 = CARTESIAN_POINT('',(-1.445938968763,32.073558691654,
    21.705073963808));
#675 = CARTESIAN_POINT('',(-1.897688239512,31.451933849554,
    21.471489590705));
#676 = CARTESIAN_POINT('',(-2.692968144021,30.087837287292,
    20.97515804686));
#677 = CARTESIAN_POINT('',(-3.037837900381,29.340143608608,
    20.710652975827));
#678 = CARTESIAN_POINT('',(-3.311865007863,28.538310320646,
    20.43646480465));
#679 = CARTESIAN_POINT('',(-3.502273768263,27.694186327755,
    20.15910837581));
#680 = CARTESIAN_POINT('',(-3.6,26.822156326195,19.884782728393));
#681 = CARTESIAN_POINT('',(-3.6,25.937955922661,19.618665347106));
#682 = CYLINDRICAL_SURFACE('',#683,9.6);
#683 = AXIS2_PLACEMENT_3D('',#684,#685,#686);
#684 = CARTESIAN_POINT('',(6.,25.937955922661,-30.));
#685 = DIRECTION('',(-0.,-0.,-1.));
#686 = DIRECTION('',(0.,-1.,0.));
#687 = ADVANCED_FACE('',(#688),#707,.T.);
#688 = FACE_BOUND('',#689,.T.);
#689 = EDGE_LOOP('',(#690,#691,#692,#701));
#690 = ORIENTED_EDGE('',*,*,#73,.F.);
#691 = ORIENTED_EDGE('',*,*,#648,.T.);
#692 = ORIENTED_EDGE('',*,*,#693,.F.);
#693 = EDGE_CURVE('',#694,#649,#696,.T.);
#694 = VERTEX_POINT('',#695);
#695 = CARTESIAN_POINT('',(-3.6,-25.93795592266,19.618665347106));
#696 = CIRCLE('',#697,90.);
#697 = AXIS2_PLACEMENT_3D('',#698,#699,#700);
#698 = CARTESIAN_POINT('',(-3.6,0.,105.8));
#699 = DIRECTION('',(1.,0.,-0.));
#700 = DIRECTION('',(0.,0.,1.));
#701 = ORIENTED_EDGE('',*,*,#702,.F.);
#702 = EDGE_CURVE('',#65,#694,#703,.T.);
#703 = LINE('',#704,#705);
#704 = CARTESIAN_POINT('',(-3.6,-25.93795592266,-30.));
#705 = VECTOR('',#706,1.);
#706 = DIRECTION('',(0.,0.,1.));
#707 = PLANE('',#708);
#708 = AXIS2_PLACEMENT_3D('',#709,#710,#711);
#709 = CARTESIAN_POINT('',(-3.6,25.937955922661,-30.));
#710 = DIRECTION('',(1.,0.,0.));
#711 = DIRECTION('',(0.,-1.,0.));
#712 = ADVANCED_FACE('',(#713),#748,.F.);
#713 = FACE_BOUND('',#714,.F.);
#714 = EDGE_LOOP('',(#715,#716,#717,#727,#747));
#715 = ORIENTED_EDGE('',*,*,#64,.F.);
#716 = ORIENTED_EDGE('',*,*,#481,.T.);
#717 = ORIENTED_EDGE('',*,*,#718,.T.);
#718 = EDGE_CURVE('',#482,#719,#721,.T.);
#719 = VERTEX_POINT('',#720);
#720 = CARTESIAN_POINT('',(6.,-35.53795592266,23.11352172913));
#721 = B_SPLINE_CURVE_WITH_KNOTS('',4,(#722,#723,#724,#725,#726),
  .UNSPECIFIED.,.F.,.F.,(5,5),(0.,1.),.PIECEWISE_BEZIER_KNOTS.);
#722 = CARTESIAN_POINT('',(6.812172133942,-35.50353883353,
    23.098738036862));
#723 = CARTESIAN_POINT('',(6.609462952584,-35.52074999044,
    23.106126763021));
#724 = CARTESIAN_POINT('',(6.406419641761,-35.53222061074,
    23.111056740323));
#725 = CARTESIAN_POINT('',(6.203209854057,-35.53795592266,23.11352172913
    ));
#726 = CARTESIAN_POINT('',(6.,-35.53795592266,23.11352172913));
#727 = ORIENTED_EDGE('',*,*,#728,.T.);
#728 = EDGE_CURVE('',#719,#694,#729,.T.);
#729 = B_SPLINE_CURVE_WITH_KNOTS('',6,(#730,#731,#732,#733,#734,#735,
    #736,#737,#738,#739,#740,#741,#742,#743,#744,#745,#746),
  .UNSPECIFIED.,.F.,.F.,(7,5,5,7),(0.,0.403784296181,0.700483842024,1.),
  .UNSPECIFIED.);
#730 = CARTESIAN_POINT('',(6.,-35.53795592266,23.11352172913));
#731 = CARTESIAN_POINT('',(5.08881456776,-35.53795592266,23.11352172913)
  );
#732 = CARTESIAN_POINT('',(4.177875379912,-35.43417426416,
    23.068916898832));
#733 = CARTESIAN_POINT('',(3.276974902459,-35.22671019021,
    22.979752230566));
#734 = CARTESIAN_POINT('',(2.396208188153,-34.91471777762,
    22.846813550918));
#735 = CARTESIAN_POINT('',(1.546952605965,-34.49669960363,
    22.671785995703));
#736 = CARTESIAN_POINT('',(0.153284262123,-33.58475779458,
    22.300071654343));
#737 = CARTESIAN_POINT('',(-0.412709577256,-33.14005862807,
    22.121313928939));
#738 = CARTESIAN_POINT('',(-0.9481600446,-32.63640410449,21.922431671503
    ));
#739 = CARTESIAN_POINT('',(-1.445938968766,-32.07355869168,
    21.705073963816));
#740 = CARTESIAN_POINT('',(-1.897688239556,-31.45193384947,
    21.471489590677));
#741 = CARTESIAN_POINT('',(-2.692968144793,-30.08783728596,
    20.975158046378));
#742 = CARTESIAN_POINT('',(-3.037837898391,-29.34014361371,
    20.710652977581));
#743 = CARTESIAN_POINT('',(-3.311865009913,-28.53831031291,
    20.436464802096));
#744 = CARTESIAN_POINT('',(-3.502273767448,-27.69418633321,
    20.159108377544));
#745 = CARTESIAN_POINT('',(-3.6,-26.82215632463,19.884782727923));
#746 = CARTESIAN_POINT('',(-3.6,-25.93795592266,19.618665347106));
#747 = ORIENTED_EDGE('',*,*,#702,.F.);
#748 = CYLINDRICAL_SURFACE('',#749,9.6);
#749 = AXIS2_PLACEMENT_3D('',#750,#751,#752);
#750 = CARTESIAN_POINT('',(6.,-25.93795592266,-30.));
#751 = DIRECTION('',(0.,0.,-1.));
#752 = DIRECTION('',(0.,-1.,0.));
#753 = ADVANCED_FACE('',(#754),#765,.T.);
#754 = FACE_BOUND('',#755,.T.);
#755 = EDGE_LOOP('',(#756,#762,#763,#764));
#756 = ORIENTED_EDGE('',*,*,#757,.T.);
#757 = EDGE_CURVE('',#507,#428,#758,.T.);
#758 = LINE('',#759,#760);
#759 = CARTESIAN_POINT('',(42.067862091233,-27.74298912798,11.5));
#760 = VECTOR('',#761,1.);
#761 = DIRECTION('',(8.460126395232E-02,-0.99641488655,0.));
#762 = ORIENTED_EDGE('',*,*,#435,.T.);
#763 = ORIENTED_EDGE('',*,*,#48,.T.);
#764 = ORIENTED_EDGE('',*,*,#514,.F.);
#765 = PLANE('',#766);
#766 = AXIS2_PLACEMENT_3D('',#767,#768,#769);
#767 = CARTESIAN_POINT('',(42.067862091233,-27.74298912798,6.5));
#768 = DIRECTION('',(0.99641488655,8.460126395232E-02,0.));
#769 = DIRECTION('',(0.,0.,1.));
#770 = ADVANCED_FACE('',(#771),#805,.T.);
#771 = FACE_BOUND('',#772,.T.);
#772 = EDGE_LOOP('',(#773,#774,#775,#776));
#773 = ORIENTED_EDGE('',*,*,#198,.F.);
#774 = ORIENTED_EDGE('',*,*,#31,.T.);
#775 = ORIENTED_EDGE('',*,*,#442,.T.);
#776 = ORIENTED_EDGE('',*,*,#777,.T.);
#777 = EDGE_CURVE('',#409,#199,#778,.T.);
#778 = B_SPLINE_CURVE_WITH_KNOTS('',7,(#779,#780,#781,#782,#783,#784,
    #785,#786,#787,#788,#789,#790,#791,#792,#793,#794,#795,#796,#797,
    #798,#799,#800,#801,#802,#803,#804),.UNSPECIFIED.,.F.,.F.,(8,6,6,6,8
    ),(0.,5.551806256608E-02,0.46712835482,0.74473995888,1.),
  .UNSPECIFIED.);
#779 = CARTESIAN_POINT('',(7.015215167428,-37.89493456125,
    26.820674005167));
#780 = CARTESIAN_POINT('',(6.872413590274,-37.90705922346,
    26.826491518488));
#781 = CARTESIAN_POINT('',(6.72948836084,-37.91719032498,26.831355176567
    ));
#782 = CARTESIAN_POINT('',(6.586463915968,-37.92532807474,
    26.835263498675));
#783 = CARTESIAN_POINT('',(6.44336466953,-37.93147262972,26.838215368923
    ));
#784 = CARTESIAN_POINT('',(6.300215012423,-37.93562409494,26.84021003626
    ));
#785 = CARTESIAN_POINT('',(6.157039312575,-37.93778252344,
    26.841247114474));
#786 = CARTESIAN_POINT('',(4.952346297119,-37.93917413704,
    26.841915754943));
#787 = CARTESIAN_POINT('',(3.891327691477,-37.83084861401,
    26.789867710126));
#788 = CARTESIAN_POINT('',(2.840174994001,-37.61318819504,26.68527771898
    ));
#789 = CARTESIAN_POINT('',(1.808438861979,-37.28592812913,
    26.529188915806));
#790 = CARTESIAN_POINT('',(0.806335173187,-36.84849667268,
    26.323661294518));
#791 = CARTESIAN_POINT('',(-0.154642993132,-36.30022556417,
    26.071869115863));
#792 = CARTESIAN_POINT('',(-1.672137754136,-35.19591243467,
    25.580022136841));
#793 = CARTESIAN_POINT('',(-2.25900335792,-34.70012493397,
    25.362661284034));
#794 = CARTESIAN_POINT('',(-2.817098575911,-34.15319535336,
    25.127370425794));
#795 = CARTESIAN_POINT('',(-3.341525272743,-33.55512972329,
    24.875757221438));
#796 = CARTESIAN_POINT('',(-3.826783167783,-32.90623712374,
    24.60976077086));
#797 = CARTESIAN_POINT('',(-4.26665394802,-32.20730126937,
    24.331654852526));
#798 = CARTESIAN_POINT('',(-5.010309000445,-30.77245869031,
    23.779525976164));
#799 = CARTESIAN_POINT('',(-5.323526514988,-30.04149508514,
    23.505990758315));
#800 = CARTESIAN_POINT('',(-5.585457107482,-29.27170783865,
    23.226916856918));
#801 = CARTESIAN_POINT('',(-5.789090337295,-28.4690996901,
    22.946076288283));
#802 = CARTESIAN_POINT('',(-5.928720705598,-27.64067489094,
    22.667167232399));
#803 = CARTESIAN_POINT('',(-6.,-26.7942057835,22.39356046723));
#804 = CARTESIAN_POINT('',(-6.,-25.93795592266,22.128126335344));
#805 = CYLINDRICAL_SURFACE('',#806,12.);
#806 = AXIS2_PLACEMENT_3D('',#807,#808,#809);
#807 = CARTESIAN_POINT('',(6.,-25.93795592266,-30.));
#808 = DIRECTION('',(0.,0.,1.));
#809 = DIRECTION('',(8.460126395233E-02,-0.99641488655,0.));
#810 = ADVANCED_FACE('',(#811,#821,#879,#944,#1002),#1060,.F.);
#811 = FACE_BOUND('',#812,.F.);
#812 = EDGE_LOOP('',(#813,#814,#815,#816,#817,#818,#819,#820));
#813 = ORIENTED_EDGE('',*,*,#230,.F.);
#814 = ORIENTED_EDGE('',*,*,#276,.T.);
#815 = ORIENTED_EDGE('',*,*,#302,.F.);
#816 = ORIENTED_EDGE('',*,*,#342,.F.);
#817 = ORIENTED_EDGE('',*,*,#368,.F.);
#818 = ORIENTED_EDGE('',*,*,#408,.T.);
#819 = ORIENTED_EDGE('',*,*,#777,.T.);
#820 = ORIENTED_EDGE('',*,*,#206,.T.);
#821 = FACE_BOUND('',#822,.F.);
#822 = EDGE_LOOP('',(#823));
#823 = ORIENTED_EDGE('',*,*,#824,.T.);
#824 = EDGE_CURVE('',#825,#825,#827,.T.);
#825 = VERTEX_POINT('',#826);
#826 = CARTESIAN_POINT('',(2.2,-18.,20.06925872244));
#827 = B_SPLINE_CURVE_WITH_KNOTS('',8,(#828,#829,#830,#831,#832,#833,
    #834,#835,#836,#837,#838,#839,#840,#841,#842,#843,#844,#845,#846,
    #847,#848,#849,#850,#851,#852,#853,#854,#855,#856,#857,#858,#859,
    #860,#861,#862,#863,#864,#865,#866,#867,#868,#869,#870,#871,#872,
    #873,#874,#875,#876,#877,#878),.UNSPECIFIED.,.T.,.F.,(9,7,7,7,7,7,7,
    9),(0.,9.696254435529E-02,0.174045766406,0.358483269826,
    0.490901290094,0.631341463891,0.827143716256,1.),.UNSPECIFIED.);
#828 = CARTESIAN_POINT('',(2.2,-18.,20.06925872244));
#829 = CARTESIAN_POINT('',(2.2,-17.89747698311,20.047733021431));
#830 = CARTESIAN_POINT('',(2.189989393038,-17.7954704949,20.026462030857
    ));
#831 = CARTESIAN_POINT('',(2.170145460042,-17.69534350117,
    20.005729354192));
#832 = CARTESIAN_POINT('',(2.140919664322,-17.59841103341,
    19.985797243296));
#833 = CARTESIAN_POINT('',(2.10302642305,-17.50589262005,19.966898265168
    ));
#834 = CARTESIAN_POINT('',(2.057431568326,-17.41886207606,
    19.949227625121));
#835 = CARTESIAN_POINT('',(2.005340497797,-17.33819465104,
    19.932936146352));
#836 = CARTESIAN_POINT('',(1.902749380226,-17.20593497922,
    19.906348480435));
#837 = CARTESIAN_POINT('',(1.853899224937,-17.151497315,19.895452587618)
  );
#838 = CARTESIAN_POINT('',(1.802060590181,-17.10127175344,
    19.885439164552));
#839 = CARTESIAN_POINT('',(1.747627132656,-17.05530402229,19.87630648486
    ));
#840 = CARTESIAN_POINT('',(1.690965214739,-17.01361705214,
    19.868049362298));
#841 = CARTESIAN_POINT('',(1.632417507107,-16.97621498645,
    19.860660120339));
#842 = CARTESIAN_POINT('',(1.572306103825,-16.94308651587,
    19.854129327769));
#843 = CARTESIAN_POINT('',(1.364092487788,-16.8451086253,19.834848485203
    ));
#844 = CARTESIAN_POINT('',(1.20946456063,-16.80006805429,19.826051007365
    ));
#845 = CARTESIAN_POINT('',(1.050613730511,-16.77884820267,
    19.821926661061));
#846 = CARTESIAN_POINT('',(0.890507713294,-16.7812473431,19.822396017049
    ));
#847 = CARTESIAN_POINT('',(0.731894888997,-16.8071856071,19.827441530819
    ));
#848 = CARTESIAN_POINT('',(0.577505126755,-16.85681116978,
    19.837126126583));
#849 = CARTESIAN_POINT('',(0.430382678713,-16.9305696356,19.851608987476
    ));
#850 = CARTESIAN_POINT('',(0.197213126524,-17.0999772315,19.88518179126)
  );
#851 = CARTESIAN_POINT('',(0.104371771328,-17.18450920066,19.90200360181
    ));
#852 = CARTESIAN_POINT('',(1.936081989947E-02,-17.2825886039,
    19.921625939704));
#853 = CARTESIAN_POINT('',(-5.487823350807E-02,-17.39328588595,
    19.943924871995));
#854 = CARTESIAN_POINT('',(-0.11573556208,-17.51506740267,
    19.968659351377));
#855 = CARTESIAN_POINT('',(-0.160970861657,-17.64590619537,
    19.995481092588));
#856 = CARTESIAN_POINT('',(-0.188743087718,-17.78336498367,
    20.023938281076));
#857 = CARTESIAN_POINT('',(-0.207059573422,-18.07449718707,
    20.084797227088));
#858 = CARTESIAN_POINT('',(-0.194945297165,-18.22386227069,
    20.116333212801));
#859 = CARTESIAN_POINT('',(-0.161967956591,-18.3689377772,
    20.147281706074));
#860 = CARTESIAN_POINT('',(-0.109667627891,-18.50615403256,
    20.176849297966));
#861 = CARTESIAN_POINT('',(-4.038819735447E-02,-18.63237814213,
    20.204293317756));
#862 = CARTESIAN_POINT('',(4.278114351248E-02,-18.74510910783,
    20.228985130288));
#863 = CARTESIAN_POINT('',(0.136068761478,-18.84269739574,
    20.250483379412));
#864 = CARTESIAN_POINT('',(0.373148709539,-19.03882698572,
    20.293878875439));
#865 = CARTESIAN_POINT('',(0.52567832316,-19.12532924449,20.313201136577
    ));
#866 = CARTESIAN_POINT('',(0.687421756235,-19.18481537455,
    20.326573591562));
#867 = CARTESIAN_POINT('',(0.85461974901,-19.21780194223,20.334014163573
    ));
#868 = CARTESIAN_POINT('',(1.023955752873,-19.22450065063,
    20.335522659641));
#869 = CARTESIAN_POINT('',(1.192197074211,-19.20487976805,
    20.331089188017));
#870 = CARTESIAN_POINT('',(1.35590411299,-19.15874453139,20.320715403051
    ));
#871 = CARTESIAN_POINT('',(1.64779817662,-19.02138961115,20.290052674035
    ));
#872 = CARTESIAN_POINT('',(1.781692171305,-18.93430247083,
    20.270669789564));
#873 = CARTESIAN_POINT('',(1.906268122319,-18.82363203268,
    20.246152181562));
#874 = CARTESIAN_POINT('',(2.015530699808,-18.69040086825,20.21683954421
    ));
#875 = CARTESIAN_POINT('',(2.104006856972,-18.53712976775,
    20.183438040915));
#876 = CARTESIAN_POINT('',(2.166868547153,-18.36755688156,
    20.146915058063));
#877 = CARTESIAN_POINT('',(2.2,-18.18651717425,20.108419810826));
#878 = CARTESIAN_POINT('',(2.2,-18.,20.06925872244));
#879 = FACE_BOUND('',#880,.F.);
#880 = EDGE_LOOP('',(#881));
#881 = ORIENTED_EDGE('',*,*,#882,.T.);
#882 = EDGE_CURVE('',#883,#883,#885,.T.);
#883 = VERTEX_POINT('',#884);
#884 = CARTESIAN_POINT('',(2.2,18.,20.06925872244));
#885 = B_SPLINE_CURVE_WITH_KNOTS('',8,(#886,#887,#888,#889,#890,#891,
    #892,#893,#894,#895,#896,#897,#898,#899,#900,#901,#902,#903,#904,
    #905,#906,#907,#908,#909,#910,#911,#912,#913,#914,#915,#916,#917,
    #918,#919,#920,#921,#922,#923,#924,#925,#926,#927,#928,#929,#930,
    #931,#932,#933,#934,#935,#936,#937,#938,#939,#940,#941,#942,#943),
  .UNSPECIFIED.,.T.,.F.,(9,7,7,7,7,7,7,7,9),(0.,9.695095763741E-02,
    0.174013249069,0.368615737249,0.499623218066,0.640889050547,
    0.825628236239,0.936345089348,1.),.UNSPECIFIED.);
#886 = CARTESIAN_POINT('',(2.2,18.,20.06925872244));
#887 = CARTESIAN_POINT('',(2.2,18.102697711234,20.090821102219));
#888 = CARTESIAN_POINT('',(2.189955287012,18.204792455525,
    20.112403643402));
#889 = CARTESIAN_POINT('',(2.170072856566,18.304936410089,
    20.133720646646));
#890 = CARTESIAN_POINT('',(2.140823701283,18.401833691745,
    20.154486137591));
#891 = CARTESIAN_POINT('',(2.102931690872,18.49428628029,20.174425148203
    ));
#892 = CARTESIAN_POINT('',(2.057362064722,18.58124210057,20.193286641496
    ));
#893 = CARTESIAN_POINT('',(2.005309537086,18.661845263266,20.21085807966
    ));
#894 = CARTESIAN_POINT('',(1.902780898436,18.794024387749,
    20.239797580794));
#895 = CARTESIAN_POINT('',(1.85395912621,18.848437274303,20.251758800825
    ));
#896 = CARTESIAN_POINT('',(1.802142106505,18.898652470034,
    20.262837079812));
#897 = CARTESIAN_POINT('',(1.747720823408,18.944621757137,
    20.273010938054));
#898 = CARTESIAN_POINT('',(1.691059180681,18.986319634949,
    20.282264943639));
#899 = CARTESIAN_POINT('',(1.632497345688,19.023739600895,
    20.290589024099));
#900 = CARTESIAN_POINT('',(1.572355093311,19.056890431425,
    20.297977778064));
#901 = CARTESIAN_POINT('',(1.355833691124,19.158777669413,
    20.320722800689));
#902 = CARTESIAN_POINT('',(1.19211474391,19.20489044525,20.331091639373)
  );
#903 = CARTESIAN_POINT('',(1.023907567091,19.224488422475,
    20.335519890752));
#904 = CARTESIAN_POINT('',(0.854620478272,19.217787340294,
    20.334010860472));
#905 = CARTESIAN_POINT('',(0.687459516867,19.184817378802,20.32657408156
    ));
#906 = CARTESIAN_POINT('',(0.525725806977,19.125351000858,
    20.313206031336));
#907 = CARTESIAN_POINT('',(0.373179195009,19.038852205501,
    20.293884455549));
#908 = CARTESIAN_POINT('',(0.142129611889,18.847711367257,
    20.251592767245));
#909 = CARTESIAN_POINT('',(5.449759068585E-02,18.757224038048,
    20.231654729186));
#910 = CARTESIAN_POINT('',(-2.441644433276E-02,18.653580669195,
    20.208939036941));
#911 = CARTESIAN_POINT('',(-9.162012105668E-02,18.538001799263,
    20.183778723201));
#912 = CARTESIAN_POINT('',(-0.144567166874,18.412338495268,
    20.15664401081));
#913 = CARTESIAN_POINT('',(-0.181202164643,18.278931163811,
    20.128097529214));
#914 = CARTESIAN_POINT('',(-0.2,18.140490417976,20.098756047272));
#915 = CARTESIAN_POINT('',(-0.2,17.848508682654,20.037451652168));
#916 = CARTESIAN_POINT('',(-0.178143306551,17.699582579155,
    20.006502602627));
#917 = CARTESIAN_POINT('',(-0.135724781709,17.556853085628,
    19.977154573525));
#918 = CARTESIAN_POINT('',(-7.471491560632E-02,17.423572620342,
    19.950028810541));
#919 = CARTESIAN_POINT('',(2.279828127998E-03,17.302494559884,
    19.925609452413));
#920 = CARTESIAN_POINT('',(9.206556844022E-02,17.195727218602,
    19.904235825027));
#921 = CARTESIAN_POINT('',(0.190919292281,17.104549969747,
    19.886088005901));
#922 = CARTESIAN_POINT('',(0.430320710181,16.930614658378,
    19.851617909985));
#923 = CARTESIAN_POINT('',(0.577410468238,16.856849682403,
    19.837133636153));
#924 = CARTESIAN_POINT('',(0.731817213572,16.80719035833,19.827442404204
    ));
#925 = CARTESIAN_POINT('',(0.890494609096,16.781224188314,
    19.822391530648));
#926 = CARTESIAN_POINT('',(1.050686837025,16.778828801619,
    19.821922896232));
#927 = CARTESIAN_POINT('',(1.209598765019,16.800086816998,
    19.826054594237));
#928 = CARTESIAN_POINT('',(1.364210187524,16.845164010595,
    19.834859384347));
#929 = CARTESIAN_POINT('',(1.598869531767,16.955586316248,
    19.856589134586));
#930 = CARTESIAN_POINT('',(1.68443455114,17.005791448057,19.866492524076
    ));
#931 = CARTESIAN_POINT('',(1.76658804473,17.064909368213,19.878191189307
    ));
#932 = CARTESIAN_POINT('',(1.84423771734,17.132917046873,19.891703748561
    ));
#933 = CARTESIAN_POINT('',(1.916236184193,17.209677186575,
    19.907031741479));
#934 = CARTESIAN_POINT('',(1.981371456665,17.29492557413,19.924155923164
    ));
#935 = CARTESIAN_POINT('',(2.038352871425,17.388250586422,
    19.943029828772));
#936 = CARTESIAN_POINT('',(2.11306710883,17.547026422982,19.975380206367
    ));
#937 = CARTESIAN_POINT('',(2.137155779672,17.607396034093,
    19.987726985298));
#938 = CARTESIAN_POINT('',(2.157714416811,17.669854940644,20.00055292843
    ));
#939 = CARTESIAN_POINT('',(2.174461897163,17.734043866222,
    20.013790514758));
#940 = CARTESIAN_POINT('',(2.187181452256,17.799572008766,
    20.027364228017));
#941 = CARTESIAN_POINT('',(2.195722087258,17.866026048527,
    20.041192065469));
#942 = CARTESIAN_POINT('',(2.2,17.932979156023,20.055187046707));
#943 = CARTESIAN_POINT('',(2.2,18.,20.06925872244));
#944 = FACE_BOUND('',#945,.F.);
#945 = EDGE_LOOP('',(#946));
#946 = ORIENTED_EDGE('',*,*,#947,.T.);
#947 = EDGE_CURVE('',#948,#948,#950,.T.);
#948 = VERTEX_POINT('',#949);
#949 = CARTESIAN_POINT('',(95.2,-16.,19.673581288898));
#950 = B_SPLINE_CURVE_WITH_KNOTS('',8,(#951,#952,#953,#954,#955,#956,
    #957,#958,#959,#960,#961,#962,#963,#964,#965,#966,#967,#968,#969,
    #970,#971,#972,#973,#974,#975,#976,#977,#978,#979,#980,#981,#982,
    #983,#984,#985,#986,#987,#988,#989,#990,#991,#992,#993,#994,#995,
    #996,#997,#998,#999,#1000,#1001),.UNSPECIFIED.,.T.,.F.,(9,7,7,7,7,7,
    7,9),(0.,9.699484039847E-02,0.174329707693,0.36992774087,
    0.500969448022,0.632203004064,0.832782730921,1.),.UNSPECIFIED.);
#951 = CARTESIAN_POINT('',(95.2,-16.,19.673581288898));
#952 = CARTESIAN_POINT('',(95.2,-15.89734767346,19.654511214361));
#953 = CARTESIAN_POINT('',(95.189964118342,-15.79524266565,
    19.635687434391));
#954 = CARTESIAN_POINT('',(95.170080423243,-15.69505351193,
    19.617361521616));
#955 = CARTESIAN_POINT('',(95.140812570198,-15.59809902093,
    19.59976461551));
#956 = CARTESIAN_POINT('',(95.102888665621,-15.50560046166,
    19.583100218537));
#957 = CARTESIAN_POINT('',(95.057289823621,-15.41863109473,
    19.567537688864));
#958 = CARTESIAN_POINT('',(95.005238415913,-15.33806304787,
    19.55320642962));
#959 = CARTESIAN_POINT('',(94.902697617253,-15.20586824679,
    19.52981327487));
#960 = CARTESIAN_POINT('',(94.853805255995,-15.15139563814,
    19.520220809399));
#961 = CARTESIAN_POINT('',(94.801938988101,-15.10116034906,
    19.511413445023));
#962 = CARTESIAN_POINT('',(94.747495377632,-15.05520144602,
    19.503387265674));
#963 = CARTESIAN_POINT('',(94.690841826723,-15.01353544657,
    19.496135509695));
#964 = CARTESIAN_POINT('',(94.632320409277,-14.97616063701,
    19.489649484315));
#965 = CARTESIAN_POINT('',(94.572251207297,-14.94306068352,
    19.483919257394));
#966 = CARTESIAN_POINT('',(94.355852447174,-14.84123115651,
    19.466325560144));
#967 = CARTESIAN_POINT('',(94.192182971049,-14.79513420476,
    19.458433723346));
#968 = CARTESIAN_POINT('',(94.024074450197,-14.77554839724,
    19.455101360419));
#969 = CARTESIAN_POINT('',(93.854922821485,-14.78222111365,
    19.456241520555));
#970 = CARTESIAN_POINT('',(93.687877496374,-14.81510246135,
    19.461848592779));
#971 = CARTESIAN_POINT('',(93.526159577703,-14.87445207521,
    19.472012627813));
#972 = CARTESIAN_POINT('',(93.373460632929,-14.9609149688,
    19.486938842433));
#973 = CARTESIAN_POINT('',(93.142390049605,-15.15207317992,
    19.520334150748));
#974 = CARTESIAN_POINT('',(93.054805727844,-15.24242027869,
    19.536198044889));
#975 = CARTESIAN_POINT('',(92.975829686362,-15.34601767448,
    19.554507100172));
#976 = CARTESIAN_POINT('',(92.908528590812,-15.46163462088,
    19.575106584331));
#977 = CARTESIAN_POINT('',(92.855496140463,-15.58739415877,
    19.597729650617));
#978 = CARTESIAN_POINT('',(92.818811205365,-15.72091940264,
    19.622006678341));
#979 = CARTESIAN_POINT('',(92.8,-15.8594588182,19.647472471855));
#980 = CARTESIAN_POINT('',(92.8,-16.14074693819,19.699728330013));
#981 = CARTESIAN_POINT('',(92.818866563395,-16.27936941478,
    19.725752431693));
#982 = CARTESIAN_POINT('',(92.855602107581,-16.41287480192,
    19.751084556558));
#983 = CARTESIAN_POINT('',(92.908647470831,-16.53855236853,
    19.775173412511));
#984 = CARTESIAN_POINT('',(92.975914997179,-16.6540686042,19.79751466895
    ));
#985 = CARTESIAN_POINT('',(93.054826973023,-16.75758545587,
    19.817686162012));
#986 = CARTESIAN_POINT('',(93.142359415453,-16.84790147729,
    19.835389088841));
#987 = CARTESIAN_POINT('',(93.376824158081,-17.04186758119,
    19.873583628899));
#988 = CARTESIAN_POINT('',(93.533804036771,-17.12991069945,
    19.891110403009));
#989 = CARTESIAN_POINT('',(93.70044482828,-17.18958463926,
    19.903075401985));
#990 = CARTESIAN_POINT('',(93.872820570354,-17.22136285281,
    19.909471577843));
#991 = CARTESIAN_POINT('',(94.047332034425,-17.22531859656,
    19.910264422407));
#992 = CARTESIAN_POINT('',(94.22030696968,-17.2013194013,19.905427767436
    ));
#993 = CARTESIAN_POINT('',(94.387710429649,-17.14924315422,
    19.89499364007));
#994 = CARTESIAN_POINT('',(94.675739932792,-17.00248479216,
    19.865838349586));
#995 = CARTESIAN_POINT('',(94.803462685076,-16.91431902877,
    19.848384726518));
#996 = CARTESIAN_POINT('',(94.921967531528,-16.80398938407,
    19.826658753339));
#997 = CARTESIAN_POINT('',(95.025643454065,-16.67253469855,
    19.800970678253));
#998 = CARTESIAN_POINT('',(95.109400617289,-16.52237249412,
    19.771930768864));
#999 = CARTESIAN_POINT('',(95.168776793917,-16.35703934396,
    19.740359768403));
#1000 = CARTESIAN_POINT('',(95.2,-16.18106595596,19.707218532136));
#1001 = CARTESIAN_POINT('',(95.2,-16.,19.673581288898));
#1002 = FACE_BOUND('',#1003,.F.);
#1003 = EDGE_LOOP('',(#1004));
#1004 = ORIENTED_EDGE('',*,*,#1005,.T.);
#1005 = EDGE_CURVE('',#1006,#1006,#1008,.T.);
#1006 = VERTEX_POINT('',#1007);
#1007 = CARTESIAN_POINT('',(95.2,16.,19.673581288898));
#1008 = B_SPLINE_CURVE_WITH_KNOTS('',8,(#1009,#1010,#1011,#1012,#1013,
    #1014,#1015,#1016,#1017,#1018,#1019,#1020,#1021,#1022,#1023,#1024,
    #1025,#1026,#1027,#1028,#1029,#1030,#1031,#1032,#1033,#1034,#1035,
    #1036,#1037,#1038,#1039,#1040,#1041,#1042,#1043,#1044,#1045,#1046,
    #1047,#1048,#1049,#1050,#1051,#1052,#1053,#1054,#1055,#1056,#1057,
    #1058,#1059),.UNSPECIFIED.,.T.,.F.,(9,7,7,7,7,7,7,9),(0.,
    0.136113451603,0.249672902391,0.398507821586,0.534817629072,
    0.748788953146,0.903119793128,1.),.UNSPECIFIED.);
#1009 = CARTESIAN_POINT('',(95.2,16.,19.673581288898));
#1010 = CARTESIAN_POINT('',(95.2,16.146365169345,19.70077204807));
#1011 = CARTESIAN_POINT('',(95.179597434047,16.290277380528,
    19.727800939735));
#1012 = CARTESIAN_POINT('',(95.139988762876,16.428444437671,
    19.754040642062));
#1013 = CARTESIAN_POINT('',(95.082970334574,16.557916523346,
    19.778887677952));
#1014 = CARTESIAN_POINT('',(95.010901874284,16.67618521381,
    19.801795222971));
#1015 = CARTESIAN_POINT('',(94.926663222903,16.781311033989,
    19.822312641791));
#1016 = CARTESIAN_POINT('',(94.833604324774,16.872079552237,
    19.840131753133));
#1017 = CARTESIAN_POINT('',(94.653630403418,17.011681635556,
    19.867661055889));
#1018 = CARTESIAN_POINT('',(94.567124692183,17.065846832419,
    19.878398050757));
#1019 = CARTESIAN_POINT('',(94.477007246133,17.110770388324,
    19.887339656816));
#1020 = CARTESIAN_POINT('',(94.384163790944,17.146556405923,
    19.894484157702));
#1021 = CARTESIAN_POINT('',(94.289367245635,17.173306562297,
    19.899835387736));
#1022 = CARTESIAN_POINT('',(94.193312205514,17.191104163643,
    19.903399244595));
#1023 = CARTESIAN_POINT('',(94.096646524956,17.2,19.905180598595));
#1024 = CARTESIAN_POINT('',(93.87333174269,17.2,19.905180598595));
#1025 = CARTESIAN_POINT('',(93.746533025816,17.184719453512,
    19.90212075436));
#1026 = CARTESIAN_POINT('',(93.621043742751,17.154101734316,
    19.895989682601));
#1027 = CARTESIAN_POINT('',(93.498395412794,17.10797866616,
    19.886769654166));
#1028 = CARTESIAN_POINT('',(93.380302297415,17.046136970032,
    19.874449769118));
#1029 = CARTESIAN_POINT('',(93.2687493034,16.968374838058,
    19.859039457579));
#1030 = CARTESIAN_POINT('',(93.166117003933,16.874586017424,
    19.840586128289));
#1031 = CARTESIAN_POINT('',(92.992286784782,16.664461378244,
    19.799615115666));
#1032 = CARTESIAN_POINT('',(92.917722725135,16.54893776692,
    19.777229088569));
#1033 = CARTESIAN_POINT('',(92.856618730988,16.420075476176,
    19.752454158362));
#1034 = CARTESIAN_POINT('',(92.812688517721,16.280863744512,
    19.72594879135));
#1035 = CARTESIAN_POINT('',(92.788382324229,16.135125254372,
    19.698509493755));
#1036 = CARTESIAN_POINT('',(92.784837473789,15.987144873806,
    19.670972527679));
#1037 = CARTESIAN_POINT('',(92.801826594411,15.841290630334,
    19.644131480135));
#1038 = CARTESIAN_POINT('',(92.894012547267,15.482250049122,
    19.578717057219));
#1039 = CARTESIAN_POINT('',(92.994357709649,15.287782168566,
    19.543945600962));
#1040 = CARTESIAN_POINT('',(93.127064309534,15.123843156692,
    19.515132495101));
#1041 = CARTESIAN_POINT('',(93.283115770263,14.992679422669,
    19.492372487078));
#1042 = CARTESIAN_POINT('',(93.454745422958,14.895218634529,
    19.475601541879));
#1043 = CARTESIAN_POINT('',(93.635259006506,14.831282094763,
    19.464641750347));
#1044 = CARTESIAN_POINT('',(93.818764628823,14.8,19.459279595315));
#1045 = CARTESIAN_POINT('',(94.130719418545,14.8,19.459279595315));
#1046 = CARTESIAN_POINT('',(94.261612392177,14.816273525297,
    19.46206911406));
#1047 = CARTESIAN_POINT('',(94.391104704901,14.848898246366,
    19.467661403928));
#1048 = CARTESIAN_POINT('',(94.517507097247,14.898083178361,
    19.476110132445));
#1049 = CARTESIAN_POINT('',(94.638908742895,14.964085356525,
    19.487494932889));
#1050 = CARTESIAN_POINT('',(94.753076333665,15.04713930948,
    19.501912216685));
#1051 = CARTESIAN_POINT('',(94.857307340097,15.147351454089,
    19.51945815972));
#1052 = CARTESIAN_POINT('',(95.00523452707,15.338058034404,
    19.553205542438));
#1053 = CARTESIAN_POINT('',(95.057287790647,15.418626632516,
    19.567536889298));
#1054 = CARTESIAN_POINT('',(95.102889942395,15.50560053451,
    19.583100218844));
#1055 = CARTESIAN_POINT('',(95.140816064295,15.598105291054,
    19.599765732765));
#1056 = CARTESIAN_POINT('',(95.17008403996,15.69506506851,
    19.617363616513));
#1057 = CARTESIAN_POINT('',(95.189966091957,15.79525616542,
    19.635689913964));
#1058 = CARTESIAN_POINT('',(95.2,15.89735777591,19.654513091126));
#1059 = CARTESIAN_POINT('',(95.2,16.,19.673581288898));
#1060 = CYLINDRICAL_SURFACE('',#1061,87.6);
#1061 = AXIS2_PLACEMENT_3D('',#1062,#1063,#1064);
#1062 = CARTESIAN_POINT('',(-20.,0.,105.8));
#1063 = DIRECTION('',(1.,0.,0.));
#1064 = DIRECTION('',(0.,0.,1.));
#1065 = ADVANCED_FACE('',(#1066),#1072,.F.);
#1066 = FACE_BOUND('',#1067,.F.);
#1067 = EDGE_LOOP('',(#1068,#1069,#1070,#1071));
#1068 = ORIENTED_EDGE('',*,*,#456,.F.);
#1069 = ORIENTED_EDGE('',*,*,#506,.F.);
#1070 = ORIENTED_EDGE('',*,*,#757,.T.);
#1071 = ORIENTED_EDGE('',*,*,#427,.T.);
#1072 = PLANE('',#1073);
#1073 = AXIS2_PLACEMENT_3D('',#1074,#1075,#1076);
#1074 = CARTESIAN_POINT('',(42.067862091233,-27.74298912798,11.5));
#1075 = DIRECTION('',(0.,0.,1.));
#1076 = DIRECTION('',(8.460126395232E-02,-0.99641488655,0.));
#1077 = ADVANCED_FACE('',(#1078,#1089,#1158,#1227,#1296),#1365,.T.);
#1078 = FACE_BOUND('',#1079,.T.);
#1079 = EDGE_LOOP('',(#1080,#1081,#1082,#1083,#1084,#1085,#1086,#1087,
    #1088));
#1080 = ORIENTED_EDGE('',*,*,#538,.F.);
#1081 = ORIENTED_EDGE('',*,*,#489,.T.);
#1082 = ORIENTED_EDGE('',*,*,#718,.T.);
#1083 = ORIENTED_EDGE('',*,*,#728,.T.);
#1084 = ORIENTED_EDGE('',*,*,#693,.T.);
#1085 = ORIENTED_EDGE('',*,*,#658,.F.);
#1086 = ORIENTED_EDGE('',*,*,#625,.T.);
#1087 = ORIENTED_EDGE('',*,*,#598,.F.);
#1088 = ORIENTED_EDGE('',*,*,#565,.F.);
#1089 = FACE_BOUND('',#1090,.T.);
#1090 = EDGE_LOOP('',(#1091));
#1091 = ORIENTED_EDGE('',*,*,#1092,.T.);
#1092 = EDGE_CURVE('',#1093,#1093,#1095,.T.);
#1093 = VERTEX_POINT('',#1094);
#1094 = CARTESIAN_POINT('',(4.5,-18.,17.618369259806));
#1095 = B_SPLINE_CURVE_WITH_KNOTS('',7,(#1096,#1097,#1098,#1099,#1100,
    #1101,#1102,#1103,#1104,#1105,#1106,#1107,#1108,#1109,#1110,#1111,
    #1112,#1113,#1114,#1115,#1116,#1117,#1118,#1119,#1120,#1121,#1122,
    #1123,#1124,#1125,#1126,#1127,#1128,#1129,#1130,#1131,#1132,#1133,
    #1134,#1135,#1136,#1137,#1138,#1139,#1140,#1141,#1142,#1143,#1144,
    #1145,#1146,#1147,#1148,#1149,#1150,#1151,#1152,#1153,#1154,#1155,
    #1156,#1157),.UNSPECIFIED.,.T.,.F.,(8,6,6,6,6,6,6,6,6,6,8),(0.,
    8.838806214435E-02,0.161413178489,0.249506134688,0.360444712998,
    0.462369655425,0.548086977873,0.653501946337,0.814023646467,
    0.917844296392,1.),.UNSPECIFIED.);
#1096 = CARTESIAN_POINT('',(4.5,-18.,17.618369259806));
#1097 = CARTESIAN_POINT('',(4.5,-17.67063987697,17.55113890622));
#1098 = CARTESIAN_POINT('',(4.463840681131,-17.3438315438,
    17.485923983415));
#1099 = CARTESIAN_POINT('',(4.392530246566,-17.02567276363,
    17.423925137863));
#1100 = CARTESIAN_POINT('',(4.288729893817,-16.72197170259,
    17.366110813584));
#1101 = CARTESIAN_POINT('',(4.156640738359,-16.43782055441,
    17.31317213255));
#1102 = CARTESIAN_POINT('',(4.001910432615,-16.17721958786,
    17.26551901887));
#1103 = CARTESIAN_POINT('',(3.690817644713,-15.749037099,17.188451252511
    ));
#1104 = CARTESIAN_POINT('',(3.538153218633,-15.57142587365,
    17.156993626075));
#1105 = CARTESIAN_POINT('',(3.375631861291,-15.40982162862,
    17.128773700062));
#1106 = CARTESIAN_POINT('',(3.205011897684,-15.26399667625,17.1036184088
    ));
#1107 = CARTESIAN_POINT('',(3.027793204871,-15.13363881178,
    17.081362627477));
#1108 = CARTESIAN_POINT('',(2.845263255511,-15.0183955355,17.06185613292
    ));
#1109 = CARTESIAN_POINT('',(2.433289386904,-14.79670294335,
    17.024594117523));
#1110 = CARTESIAN_POINT('',(2.201730713151,-14.69686309019,
    17.008011664984));
#1111 = CARTESIAN_POINT('',(1.965591018561,-14.61773312416,
    16.994982417355));
#1112 = CARTESIAN_POINT('',(1.726254419756,-14.55877237517,
    16.985329541625));
#1113 = CARTESIAN_POINT('',(1.484869604855,-14.51959493878,
    16.978934037166));
#1114 = CARTESIAN_POINT('',(1.242454724802,-14.5,16.975735297161));
#1115 = CARTESIAN_POINT('',(0.694668181944,-14.5,16.975735297161));
#1116 = CARTESIAN_POINT('',(0.389459214284,-14.53107542191,
    16.98080808166));
#1117 = CARTESIAN_POINT('',(8.627755725552E-02,-14.59318424461,
    16.990947237105));
#1118 = CARTESIAN_POINT('',(-0.212836299194,-14.68684623994,
    17.006306896284));
#1119 = CARTESIAN_POINT('',(-0.505444198772,-14.81304344595,
    17.027188767673));
#1120 = CARTESIAN_POINT('',(-0.788365401124,-14.97308559828,
    17.054036785074));
#1121 = CARTESIAN_POINT('',(-1.304284922225,-15.34792307138,
    17.118128046508));
#1122 = CARTESIAN_POINT('',(-1.541478171782,-15.55867094496,
    17.154598502737));
#1123 = CARTESIAN_POINT('',(-1.763180691307,-15.80130140071,
    17.197231024578));
#1124 = CARTESIAN_POINT('',(-1.963510264593,-16.07546096167,
    17.246319170164));
#1125 = CARTESIAN_POINT('',(-2.136382859581,-16.37987170556,
    17.302068520978));
#1126 = CARTESIAN_POINT('',(-2.275439923394,-16.71221762279,
    17.364522222289));
#1127 = CARTESIAN_POINT('',(-2.456648216475,-17.36881112663,
    17.491349683483));
#1128 = CARTESIAN_POINT('',(-2.509958709398,-17.68328344145,
    17.553325108333));
#1129 = CARTESIAN_POINT('',(-2.529601126135,-18.0057328314,
    17.618291853451));
#1130 = CARTESIAN_POINT('',(-2.513942828413,-18.32878615018,
    17.684900019584));
#1131 = CARTESIAN_POINT('',(-2.463892383022,-18.64494338233,
    17.751553292393));
#1132 = CARTESIAN_POINT('',(-2.38287673093,-18.94723019014,
    17.816557578213));
#1133 = CARTESIAN_POINT('',(-2.146396238107,-19.57733020993,
    17.954370125817));
#1134 = CARTESIAN_POINT('',(-1.977940596066,-19.89547439728,
    18.02563234829));
#1135 = CARTESIAN_POINT('',(-1.779012541254,-20.18202050681,
    18.091157821299));
#1136 = CARTESIAN_POINT('',(-1.556016204991,-20.43604910885,
    18.150236853923));
#1137 = CARTESIAN_POINT('',(-1.314529572883,-20.6574422143,
    18.202420614508));
#1138 = CARTESIAN_POINT('',(-1.059467585957,-20.84664686063,
    18.247480382808));
#1139 = CARTESIAN_POINT('',(-0.392651365651,-21.24505100553,
    18.343102216578));
#1140 = CARTESIAN_POINT('',(3.399963099676E-02,-21.41460251594,
    18.384611986055));
#1141 = CARTESIAN_POINT('',(0.473835479749,-21.51692083731,
    18.409936891456));
#1142 = CARTESIAN_POINT('',(0.919661258761,-21.55442354929,
    18.419245834358));
#1143 = CARTESIAN_POINT('',(1.365289946352,-21.52789008143,
    18.412621833043));
#1144 = CARTESIAN_POINT('',(1.804738722656,-21.43635467315,
    18.389991101657));
#1145 = CARTESIAN_POINT('',(2.504736532292,-21.17364110102,
    18.32607131796));
#1146 = CARTESIAN_POINT('',(2.773784707419,-21.04196525127,
    18.294184009332));
#1147 = CARTESIAN_POINT('',(3.034485157743,-20.88102056546,
    18.25547624825));
#1148 = CARTESIAN_POINT('',(3.283802116978,-20.68991371128,
    18.209945578701));
#1149 = CARTESIAN_POINT('',(3.518003969972,-20.4677473293,
    18.157673178258));
#1150 = CARTESIAN_POINT('',(3.732408738596,-20.21385266137,
    18.098882554036));
#1151 = CARTESIAN_POINT('',(4.070248110157,-19.70204789015,
    17.982672201101));
#1152 = CARTESIAN_POINT('',(4.204433365572,-19.45436008001,
    17.927147015506));
#1153 = CARTESIAN_POINT('',(4.318294310315,-19.18731038128,
    17.868182828571));
#1154 = CARTESIAN_POINT('',(4.407520950487,-18.90412395885,
    17.806750727282));
#1155 = CARTESIAN_POINT('',(4.468823938093,-18.60879031069,
    17.743926777777));
#1156 = CARTESIAN_POINT('',(4.5,-18.30582220364,17.680794955718));
#1157 = CARTESIAN_POINT('',(4.5,-18.,17.618369259806));
#1158 = FACE_BOUND('',#1159,.T.);
#1159 = EDGE_LOOP('',(#1160));
#1160 = ORIENTED_EDGE('',*,*,#1161,.T.);
#1161 = EDGE_CURVE('',#1162,#1162,#1164,.T.);
#1162 = VERTEX_POINT('',#1163);
#1163 = CARTESIAN_POINT('',(4.5,18.,17.618369259806));
#1164 = B_SPLINE_CURVE_WITH_KNOTS('',7,(#1165,#1166,#1167,#1168,#1169,
    #1170,#1171,#1172,#1173,#1174,#1175,#1176,#1177,#1178,#1179,#1180,
    #1181,#1182,#1183,#1184,#1185,#1186,#1187,#1188,#1189,#1190,#1191,
    #1192,#1193,#1194,#1195,#1196,#1197,#1198,#1199,#1200,#1201,#1202,
    #1203,#1204,#1205,#1206,#1207,#1208,#1209,#1210,#1211,#1212,#1213,
    #1214,#1215,#1216,#1217,#1218,#1219,#1220,#1221,#1222,#1223,#1224,
    #1225,#1226),.UNSPECIFIED.,.T.,.F.,(8,6,6,6,6,6,6,6,6,6,8),(0.,
    8.221562546921E-02,0.186111995268,0.346750761121,0.44587352042,
    0.538068742563,0.63252213213,0.750777434994,0.838770271163,
    0.911712392484,1.),.UNSPECIFIED.);
#1165 = CARTESIAN_POINT('',(4.5,18.,17.618369259806));
#1166 = CARTESIAN_POINT('',(4.5,18.305822203669,17.680794955722));
#1167 = CARTESIAN_POINT('',(4.46882393809,18.608790310635,
    17.743926777765));
#1168 = CARTESIAN_POINT('',(4.407520950506,18.904123958843,
    17.806750727279));
#1169 = CARTESIAN_POINT('',(4.318294310303,19.187310381351,
    17.868182828585));
#1170 = CARTESIAN_POINT('',(4.204433365532,19.454360080048,
    17.927147015514));
#1171 = CARTESIAN_POINT('',(4.0702481102,19.702047890092,17.982672201086
    ));
#1172 = CARTESIAN_POINT('',(3.732408745325,20.213852651185,
    18.098882551722));
#1173 = CARTESIAN_POINT('',(3.518003951803,20.467747348602,
    18.157673182698));
#1174 = CARTESIAN_POINT('',(3.283802129703,20.689913703882,
    18.209945576945));
#1175 = CARTESIAN_POINT('',(3.034485168501,20.881020553151,
    18.255476245421));
#1176 = CARTESIAN_POINT('',(2.773784686875,21.04196526462,
    18.294184012469));
#1177 = CARTESIAN_POINT('',(2.504736541734,21.173641097484,
    18.326071317098));
#1178 = CARTESIAN_POINT('',(1.804738729556,21.436354670567,
    18.389991101027));
#1179 = CARTESIAN_POINT('',(1.36528991759,21.527890086114,
    18.412621834192));
#1180 = CARTESIAN_POINT('',(0.919661314075,21.554423549773,
    18.419245834444));
#1181 = CARTESIAN_POINT('',(0.473835421001,21.516920826884,
    18.409936888968));
#1182 = CARTESIAN_POINT('',(3.399966481074E-02,21.414602528144,
    18.384611988981));
#1183 = CARTESIAN_POINT('',(-0.392651374377,21.245051000323,
    18.343102215326));
#1184 = CARTESIAN_POINT('',(-1.043509212775,20.856181544746,
    18.249768822802));
#1185 = CARTESIAN_POINT('',(-1.283466712209,20.680312475987,
    18.207868354021));
#1186 = CARTESIAN_POINT('',(-1.511606430631,20.476217567965,
    18.159711152809));
#1187 = CARTESIAN_POINT('',(-1.724012524496,20.243449692223,
    18.105459754902));
#1188 = CARTESIAN_POINT('',(-1.916213301771,19.981933292115,
    18.04543899265));
#1189 = CARTESIAN_POINT('',(-2.08303275971,19.692171490863,
    17.980164665037));
#1190 = CARTESIAN_POINT('',(-2.344204729812,19.081129291058,
    17.845458192541));
#1191 = CARTESIAN_POINT('',(-2.443442749147,18.761981200683,
    17.776308140873));
#1192 = CARTESIAN_POINT('',(-2.508094084355,18.424800031366,
    17.704747975757));
#1193 = CARTESIAN_POINT('',(-2.533376262382,18.077899852479,
    17.632857602728));
#1194 = CARTESIAN_POINT('',(-2.517733229114,17.730415357848,
    17.562621560688));
#1195 = CARTESIAN_POINT('',(-2.462882823651,17.391401718381,
    17.495713277369));
#1196 = CARTESIAN_POINT('',(-2.282676981618,16.738440514341,
    17.369587430428));
#1197 = CARTESIAN_POINT('',(-2.156524180316,16.428558538165,
    17.311226031049));
#1198 = CARTESIAN_POINT('',(-2.000742311351,16.142301259794,
    17.258583806411));
#1199 = CARTESIAN_POINT('',(-1.820450650182,15.881772861959,
    17.211678799708));
#1200 = CARTESIAN_POINT('',(-1.620658038973,15.648260961517,
    17.170390799104));
#1201 = CARTESIAN_POINT('',(-1.406300334013,15.44229245512,
    17.134513568748));
#1202 = CARTESIAN_POINT('',(-0.90165940877,15.039854746297,
    17.065258725745));
#1203 = CARTESIAN_POINT('',(-0.603362113322,14.856870094605,
    17.034447136503));
#1204 = CARTESIAN_POINT('',(-0.293036118054,14.712845145216,17.010572178
    ));
#1205 = CARTESIAN_POINT('',(2.525962731227E-02,14.606109935589,
    16.993057047768));
#1206 = CARTESIAN_POINT('',(0.348484078286,14.535389943761,
    16.981512488026));
#1207 = CARTESIAN_POINT('',(0.674160327579,14.5,16.975735297161));
#1208 = CARTESIAN_POINT('',(1.242454724802,14.5,16.975735297161));
#1209 = CARTESIAN_POINT('',(1.484869604855,14.519594938789,
    16.978934037166));
#1210 = CARTESIAN_POINT('',(1.726254419757,14.55877237518,
    16.985329541625));
#1211 = CARTESIAN_POINT('',(1.965591018561,14.617733124169,
    16.994982417355));
#1212 = CARTESIAN_POINT('',(2.201730713151,14.696863090199,
    17.008011664984));
#1213 = CARTESIAN_POINT('',(2.433289386904,14.796702943355,
    17.024594117523));
#1214 = CARTESIAN_POINT('',(2.845263255511,15.018395535503,
    17.06185613292));
#1215 = CARTESIAN_POINT('',(3.027793204871,15.133638811784,
    17.081362627477));
#1216 = CARTESIAN_POINT('',(3.205011897684,15.263996676253,17.1036184088
    ));
#1217 = CARTESIAN_POINT('',(3.375631861291,15.409821628629,
    17.128773700062));
#1218 = CARTESIAN_POINT('',(3.538153218633,15.571425873651,
    17.156993626075));
#1219 = CARTESIAN_POINT('',(3.690817644713,15.749037099004,
    17.188451252511));
#1220 = CARTESIAN_POINT('',(4.001910434155,16.17721958998,
    17.265519019251));
#1221 = CARTESIAN_POINT('',(4.156640735767,16.437820548532,
    17.313172131439));
#1222 = CARTESIAN_POINT('',(4.28872989442,16.721971706786,
    17.366110814418));
#1223 = CARTESIAN_POINT('',(4.392530248304,17.025672767136,
    17.423925138518));
#1224 = CARTESIAN_POINT('',(4.463840679917,17.343831537081,
    17.485923982085));
#1225 = CARTESIAN_POINT('',(4.5,17.670639880025,17.551138906842));
#1226 = CARTESIAN_POINT('',(4.5,18.,17.618369259806));
#1227 = FACE_BOUND('',#1228,.T.);
#1228 = EDGE_LOOP('',(#1229));
#1229 = ORIENTED_EDGE('',*,*,#1230,.T.);
#1230 = EDGE_CURVE('',#1231,#1231,#1233,.T.);
#1231 = VERTEX_POINT('',#1232);
#1232 = CARTESIAN_POINT('',(97.5,-16.,17.233640698062));
#1233 = B_SPLINE_CURVE_WITH_KNOTS('',7,(#1234,#1235,#1236,#1237,#1238,
    #1239,#1240,#1241,#1242,#1243,#1244,#1245,#1246,#1247,#1248,#1249,
    #1250,#1251,#1252,#1253,#1254,#1255,#1256,#1257,#1258,#1259,#1260,
    #1261,#1262,#1263,#1264,#1265,#1266,#1267,#1268,#1269,#1270,#1271,
    #1272,#1273,#1274,#1275,#1276,#1277,#1278,#1279,#1280,#1281,#1282,
    #1283,#1284,#1285,#1286,#1287,#1288,#1289,#1290,#1291,#1292,#1293,
    #1294,#1295),.UNSPECIFIED.,.T.,.F.,(8,6,6,6,6,6,6,6,6,6,8),(0.,
    8.47618979876E-02,0.161266534065,0.249597968277,0.360819870735,
    0.462680660315,0.548013159118,0.653338191621,0.814285575838,
    0.918168129981,1.),.UNSPECIFIED.);
#1234 = CARTESIAN_POINT('',(97.5,-16.,17.233640698062));
#1235 = CARTESIAN_POINT('',(97.5,-15.68281479518,17.176339446017));
#1236 = CARTESIAN_POINT('',(97.466464565047,-15.36796017448,
    17.120827390901));
#1237 = CARTESIAN_POINT('',(97.400280388265,-15.06098746002,
    17.06806943593));
#1238 = CARTESIAN_POINT('',(97.303823311939,-14.76720253152,
    17.018836814383));
#1239 = CARTESIAN_POINT('',(97.180861778471,-14.49129001234,
    16.97367276923));
#1240 = CARTESIAN_POINT('',(97.036478059624,-14.23698670467,
    16.932894113149));
#1241 = CARTESIAN_POINT('',(96.733071657756,-13.79904555784,
    16.863896100641));
#1242 = CARTESIAN_POINT('',(96.575565302541,-13.60908898294,
    16.834548794314));
#1243 = CARTESIAN_POINT('',(96.406958749342,-13.43682806092,
    16.808389855699));
#1244 = CARTESIAN_POINT('',(96.229330359101,-13.28198470345,
    16.785221396898));
#1245 = CARTESIAN_POINT('',(96.044430788224,-13.14417299901,
    16.76485687066));
#1246 = CARTESIAN_POINT('',(95.853743359517,-13.02295887405,
    16.747129140343));
#1247 = CARTESIAN_POINT('',(95.433160976357,-12.79663384269,
    16.714304285266));
#1248 = CARTESIAN_POINT('',(95.201529458104,-12.69678302662,
    16.700019241827));
#1249 = CARTESIAN_POINT('',(94.965371704785,-12.61767229524,
    16.688813592857));
#1250 = CARTESIAN_POINT('',(94.72606252994,-12.55873957002,
    16.680520793291));
#1251 = CARTESIAN_POINT('',(94.484735555894,-12.51958461506,
    16.67502934681));
#1252 = CARTESIAN_POINT('',(94.242390812718,-12.5,16.672282650121));
#1253 = CARTESIAN_POINT('',(93.694795317552,-12.5,16.672282650121));
#1254 = CARTESIAN_POINT('',(93.38973480021,-12.53104952958,
    16.676637208084));
#1255 = CARTESIAN_POINT('',(93.086677288687,-12.5930989051,
    16.685339803368));
#1256 = CARTESIAN_POINT('',(92.787620120133,-12.68668515036,
    16.698534200523));
#1257 = CARTESIAN_POINT('',(92.494968077465,-12.81282984599,
    16.716503326573));
#1258 = CARTESIAN_POINT('',(92.211888365939,-12.97290122571,
    16.739667046024));
#1259 = CARTESIAN_POINT('',(91.696267056398,-13.34752203544,
    16.795076387353));
#1260 = CARTESIAN_POINT('',(91.459466664324,-13.55781295239,
    16.826609343663));
#1261 = CARTESIAN_POINT('',(91.237921274972,-13.80001924317,
    16.863562914944));
#1262 = CARTESIAN_POINT('',(91.037492171078,-14.07391293601,
    16.906252873711));
#1263 = CARTESIAN_POINT('',(90.864306509164,-14.37836219164,
    16.954934285814));
#1264 = CARTESIAN_POINT('',(90.724843306187,-14.71119136345,
    17.009727597496));
#1265 = CARTESIAN_POINT('',(90.543434239986,-15.36851235235,
    17.121359941832));
#1266 = CARTESIAN_POINT('',(90.490065247258,-15.68295519994,
    17.175976078914));
#1267 = CARTESIAN_POINT('',(90.47036053614,-16.00555507023,
    17.233411134243));
#1268 = CARTESIAN_POINT('',(90.48602048727,-16.32882848095,
    17.292469283844));
#1269 = CARTESIAN_POINT('',(90.53613546612,-16.64515781597,
    17.351709094934));
#1270 = CARTESIAN_POINT('',(90.61720913595,-16.94745898163,
    17.409579759702));
#1271 = CARTESIAN_POINT('',(90.853974181999,-17.57831719078,
    17.532628670491));
#1272 = CARTESIAN_POINT('',(91.022880520119,-17.89691886573,
    17.596437077764));
#1273 = CARTESIAN_POINT('',(91.222136681418,-18.18349691524,
    17.655155325894));
#1274 = CARTESIAN_POINT('',(91.445228937508,-18.43726950927,
    17.70812385589));
#1275 = CARTESIAN_POINT('',(91.686538747865,-18.6582566812,
    17.754930198786));
#1276 = CARTESIAN_POINT('',(91.941165554688,-18.84702514455,
    17.795365904891));
#1277 = CARTESIAN_POINT('',(92.607793100488,-19.24531656169,
    17.881410077745));
#1278 = CARTESIAN_POINT('',(93.034628552765,-19.41478966575,
    17.918826400536));
#1279 = CARTESIAN_POINT('',(93.474360927518,-19.51694231517,
    17.941648424395));
#1280 = CARTESIAN_POINT('',(93.919916117471,-19.55435366418,
    17.950032420283));
#1281 = CARTESIAN_POINT('',(94.36526938118,-19.5278522341,
    17.944056558647));
#1282 = CARTESIAN_POINT('',(94.804606787164,-19.43640418937,
    17.923650035282));
#1283 = CARTESIAN_POINT('',(95.504258044055,-19.17382068066,
    17.866071849934));
#1284 = CARTESIAN_POINT('',(95.772921561975,-19.04239572942,
    17.837401131151));
#1285 = CARTESIAN_POINT('',(96.033406343553,-18.88172585786,
    17.802611611603));
#1286 = CARTESIAN_POINT('',(96.282726240919,-18.69082758641,
    17.761701850273));
#1287 = CARTESIAN_POINT('',(96.51715181893,-18.46869790558,
    17.714743433846));
#1288 = CARTESIAN_POINT('',(96.731956609729,-18.21453760733,
    17.661949006301));
#1289 = CARTESIAN_POINT('',(97.06992741728,-17.7025337191,
    17.557871166811));
#1290 = CARTESIAN_POINT('',(97.204039351536,-17.45514776462,
    17.508285029841));
#1291 = CARTESIAN_POINT('',(97.317969894271,-17.18821506253,
    17.455667566652));
#1292 = CARTESIAN_POINT('',(97.407324851305,-16.90497585115,
    17.400915418042));
#1293 = CARTESIAN_POINT('',(97.468750683118,-16.60944767885,
    17.345015749204));
#1294 = CARTESIAN_POINT('',(97.5,-16.30618102797,17.288953985028));
#1295 = CARTESIAN_POINT('',(97.5,-16.,17.233640698062));
#1296 = FACE_BOUND('',#1297,.T.);
#1297 = EDGE_LOOP('',(#1298));
#1298 = ORIENTED_EDGE('',*,*,#1299,.T.);
#1299 = EDGE_CURVE('',#1300,#1300,#1302,.T.);
#1300 = VERTEX_POINT('',#1301);
#1301 = CARTESIAN_POINT('',(97.5,16.,17.233640698062));
#1302 = B_SPLINE_CURVE_WITH_KNOTS('',7,(#1303,#1304,#1305,#1306,#1307,
    #1308,#1309,#1310,#1311,#1312,#1313,#1314,#1315,#1316,#1317,#1318,
    #1319,#1320,#1321,#1322,#1323,#1324,#1325,#1326,#1327,#1328,#1329,
    #1330,#1331,#1332,#1333,#1334,#1335,#1336,#1337,#1338,#1339,#1340,
    #1341,#1342,#1343,#1344,#1345,#1346,#1347,#1348,#1349,#1350,#1351,
    #1352,#1353,#1354,#1355,#1356,#1357,#1358,#1359,#1360,#1361,#1362,
    #1363,#1364),.UNSPECIFIED.,.T.,.F.,(8,6,6,6,6,6,6,6,6,6,8),(0.,
    8.189400166442E-02,0.185855429644,0.346925012003,0.445984019253,
    0.537771187514,0.632147083148,0.750693792544,0.838921974106,
    0.91533718215,1.),.UNSPECIFIED.);
#1303 = CARTESIAN_POINT('',(97.5,16.,17.233640698062));
#1304 = CARTESIAN_POINT('',(97.5,16.306181027992,17.288953985031));
#1305 = CARTESIAN_POINT('',(97.468750683116,16.609447678839,
    17.345015749201));
#1306 = CARTESIAN_POINT('',(97.407324851311,16.904975851147,
    17.400915418041));
#1307 = CARTESIAN_POINT('',(97.317969894271,17.188215062549,
    17.455667566654));
#1308 = CARTESIAN_POINT('',(97.204039351526,17.455147764632,
    17.508285029843));
#1309 = CARTESIAN_POINT('',(97.069927417287,17.702533719089,
    17.557871166809));
#1310 = CARTESIAN_POINT('',(96.731956609729,18.214537607335,
    17.661949006301));
#1311 = CARTESIAN_POINT('',(96.51715181893,18.468697905585,
    17.714743433846));
#1312 = CARTESIAN_POINT('',(96.282726240918,18.690827586416,
    17.761701850273));
#1313 = CARTESIAN_POINT('',(96.033406343554,18.881725857866,
    17.802611611603));
#1314 = CARTESIAN_POINT('',(95.772921561974,19.042395729427,
    17.837401131151));
#1315 = CARTESIAN_POINT('',(95.504258044055,19.173820680666,
    17.866071849934));
#1316 = CARTESIAN_POINT('',(94.804606794348,19.436404186679,
    17.923650034691));
#1317 = CARTESIAN_POINT('',(94.365269351243,19.527852238972,
    17.944056559724));
#1318 = CARTESIAN_POINT('',(93.919916175044,19.554353664697,
    17.950032420364));
#1319 = CARTESIAN_POINT('',(93.474360866357,19.516942304305,
    17.941648422061));
#1320 = CARTESIAN_POINT('',(93.034628587983,19.414789678472,
    17.918826403281));
#1321 = CARTESIAN_POINT('',(92.607793091392,19.245316556257,
    17.881410076571));
#1322 = CARTESIAN_POINT('',(91.957041045998,18.856510309058,
    17.797415015413));
#1323 = CARTESIAN_POINT('',(91.717465546529,18.681013365286,
    17.759805919592));
#1324 = CARTESIAN_POINT('',(91.489489074126,18.477260411861,
    17.716600406624));
#1325 = CARTESIAN_POINT('',(91.277013501118,18.244706049061,
    17.667946183641));
#1326 = CARTESIAN_POINT('',(91.084539367281,17.983160332949,
    17.61414246611));
#1327 = CARTESIAN_POINT('',(90.917326125723,17.693011145076,
    17.555668650851));
#1328 = CARTESIAN_POINT('',(90.655939132234,17.081465873047,
    17.435338621962));
#1329 = CARTESIAN_POINT('',(90.55662847336,16.762345901163,
    17.373734924846));
#1330 = CARTESIAN_POINT('',(90.491877959585,16.424985470539,
    17.310087042525));
#1331 = CARTESIAN_POINT('',(90.466570576009,16.077820752526,
    17.24630260413));
#1332 = CARTESIAN_POINT('',(90.482274988726,15.730129283509,
    17.184177572188));
#1333 = CARTESIAN_POINT('',(90.537198052138,15.391108671541,
    17.125197458246));
#1334 = CARTESIAN_POINT('',(90.717570122557,14.737545152473,
    17.014203242272));
#1335 = CARTESIAN_POINT('',(90.844063786826,14.427226946026,
    16.962987225075));
#1336 = CARTESIAN_POINT('',(91.000111569298,14.140912976398,
    16.91698968301));
#1337 = CARTESIAN_POINT('',(91.180495159538,13.880597343655,
    16.876161159433));
#1338 = CARTESIAN_POINT('',(91.380164231877,13.647452079494,
    16.840335556683));
#1339 = CARTESIAN_POINT('',(91.594190035928,13.441901398141,
    16.809282575611));
#1340 = CARTESIAN_POINT('',(92.09864691618,13.039610460301,
    16.74934116163));
#1341 = CARTESIAN_POINT('',(92.397143225941,12.856587023984,
    16.72274273558));
#1342 = CARTESIAN_POINT('',(92.707526898634,12.712632298797,
    16.702194098586));
#1343 = CARTESIAN_POINT('',(93.025753003945,12.605997838095,
    16.687148627831));
#1344 = CARTESIAN_POINT('',(93.348822540979,12.535356427058,
    16.677241330795));
#1345 = CARTESIAN_POINT('',(93.674314570163,12.5,16.672282650121));
#1346 = CARTESIAN_POINT('',(94.242390812718,12.5,16.672282650121));
#1347 = CARTESIAN_POINT('',(94.484735555894,12.519584615062,
    16.67502934681));
#1348 = CARTESIAN_POINT('',(94.72606252994,12.558739570029,
    16.680520793291));
#1349 = CARTESIAN_POINT('',(94.965371704785,12.617672295243,
    16.688813592857));
#1350 = CARTESIAN_POINT('',(95.201529458104,12.696783026626,
    16.700019241827));
#1351 = CARTESIAN_POINT('',(95.433160976357,12.796633842693,
    16.714304285266));
#1352 = CARTESIAN_POINT('',(95.853743359517,13.022958874059,
    16.747129140343));
#1353 = CARTESIAN_POINT('',(96.044430788224,13.144172999015,
    16.76485687066));
#1354 = CARTESIAN_POINT('',(96.229330359101,13.281984703453,
    16.785221396898));
#1355 = CARTESIAN_POINT('',(96.406958749342,13.436828060924,
    16.808389855699));
#1356 = CARTESIAN_POINT('',(96.575565302541,13.609088982948,
    16.834548794314));
#1357 = CARTESIAN_POINT('',(96.733071657756,13.799045557847,
    16.863896100641));
#1358 = CARTESIAN_POINT('',(97.036478059624,14.236986704676,
    16.932894113149));
#1359 = CARTESIAN_POINT('',(97.180861778471,14.491290012344,
    16.97367276923));
#1360 = CARTESIAN_POINT('',(97.303823311939,14.767202531523,
    17.018836814383));
#1361 = CARTESIAN_POINT('',(97.400280388265,15.060987460025,
    17.06806943593));
#1362 = CARTESIAN_POINT('',(97.466464565047,15.367960174487,
    17.120827390901));
#1363 = CARTESIAN_POINT('',(97.5,15.682814795182,17.176339446017));
#1364 = CARTESIAN_POINT('',(97.5,16.,17.233640698062));
#1365 = CYLINDRICAL_SURFACE('',#1366,90.);
#1366 = AXIS2_PLACEMENT_3D('',#1367,#1368,#1369);
#1367 = CARTESIAN_POINT('',(-20.,0.,105.8));
#1368 = DIRECTION('',(1.,0.,0.));
#1369 = DIRECTION('',(0.,0.,1.));
#1370 = ADVANCED_FACE('',(#1371),#1389,.F.);
#1371 = FACE_BOUND('',#1372,.F.);
#1372 = EDGE_LOOP('',(#1373,#1374,#1381,#1388));
#1373 = ORIENTED_EDGE('',*,*,#824,.F.);
#1374 = ORIENTED_EDGE('',*,*,#1375,.F.);
#1375 = EDGE_CURVE('',#1376,#825,#1378,.T.);
#1376 = VERTEX_POINT('',#1377);
#1377 = CARTESIAN_POINT('',(2.2,-18.,10.4));
#1378 = B_SPLINE_CURVE_WITH_KNOTS('',1,(#1379,#1380),.UNSPECIFIED.,.F.,
  .F.,(2,2),(0.4,10.06925872244),.PIECEWISE_BEZIER_KNOTS.);
#1379 = CARTESIAN_POINT('',(2.2,-18.,10.4));
#1380 = CARTESIAN_POINT('',(2.2,-18.,20.06925872244));
#1381 = ORIENTED_EDGE('',*,*,#1382,.T.);
#1382 = EDGE_CURVE('',#1376,#1376,#1383,.T.);
#1383 = CIRCLE('',#1384,1.2);
#1384 = AXIS2_PLACEMENT_3D('',#1385,#1386,#1387);
#1385 = CARTESIAN_POINT('',(1.,-18.,10.4));
#1386 = DIRECTION('',(0.,0.,1.));
#1387 = DIRECTION('',(1.,0.,0.));
#1388 = ORIENTED_EDGE('',*,*,#1375,.T.);
#1389 = CYLINDRICAL_SURFACE('',#1390,1.2);
#1390 = AXIS2_PLACEMENT_3D('',#1391,#1392,#1393);
#1391 = CARTESIAN_POINT('',(1.,-18.,10.));
#1392 = DIRECTION('',(0.,0.,1.));
#1393 = DIRECTION('',(1.,0.,0.));
#1394 = ADVANCED_FACE('',(#1395),#1413,.F.);
#1395 = FACE_BOUND('',#1396,.F.);
#1396 = EDGE_LOOP('',(#1397,#1398,#1405,#1412));
#1397 = ORIENTED_EDGE('',*,*,#882,.F.);
#1398 = ORIENTED_EDGE('',*,*,#1399,.F.);
#1399 = EDGE_CURVE('',#1400,#883,#1402,.T.);
#1400 = VERTEX_POINT('',#1401);
#1401 = CARTESIAN_POINT('',(2.2,18.,10.4));
#1402 = B_SPLINE_CURVE_WITH_KNOTS('',1,(#1403,#1404),.UNSPECIFIED.,.F.,
  .F.,(2,2),(0.4,10.06925872244),.PIECEWISE_BEZIER_KNOTS.);
#1403 = CARTESIAN_POINT('',(2.2,18.,10.4));
#1404 = CARTESIAN_POINT('',(2.2,18.,20.06925872244));
#1405 = ORIENTED_EDGE('',*,*,#1406,.T.);
#1406 = EDGE_CURVE('',#1400,#1400,#1407,.T.);
#1407 = CIRCLE('',#1408,1.2);
#1408 = AXIS2_PLACEMENT_3D('',#1409,#1410,#1411);
#1409 = CARTESIAN_POINT('',(1.,18.,10.4));
#1410 = DIRECTION('',(0.,0.,1.));
#1411 = DIRECTION('',(1.,0.,0.));
#1412 = ORIENTED_EDGE('',*,*,#1399,.T.);
#1413 = CYLINDRICAL_SURFACE('',#1414,1.2);
#1414 = AXIS2_PLACEMENT_3D('',#1415,#1416,#1417);
#1415 = CARTESIAN_POINT('',(1.,18.,10.));
#1416 = DIRECTION('',(0.,0.,1.));
#1417 = DIRECTION('',(1.,0.,0.));
#1418 = ADVANCED_FACE('',(#1419),#1437,.F.);
#1419 = FACE_BOUND('',#1420,.F.);
#1420 = EDGE_LOOP('',(#1421,#1422,#1429,#1436));
#1421 = ORIENTED_EDGE('',*,*,#947,.F.);
#1422 = ORIENTED_EDGE('',*,*,#1423,.F.);
#1423 = EDGE_CURVE('',#1424,#948,#1426,.T.);
#1424 = VERTEX_POINT('',#1425);
#1425 = CARTESIAN_POINT('',(95.2,-16.,10.4));
#1426 = B_SPLINE_CURVE_WITH_KNOTS('',1,(#1427,#1428),.UNSPECIFIED.,.F.,
  .F.,(2,2),(0.4,9.673581288898),.PIECEWISE_BEZIER_KNOTS.);
#1427 = CARTESIAN_POINT('',(95.2,-16.,10.4));
#1428 = CARTESIAN_POINT('',(95.2,-16.,19.673581288898));
#1429 = ORIENTED_EDGE('',*,*,#1430,.T.);
#1430 = EDGE_CURVE('',#1424,#1424,#1431,.T.);
#1431 = CIRCLE('',#1432,1.2);
#1432 = AXIS2_PLACEMENT_3D('',#1433,#1434,#1435);
#1433 = CARTESIAN_POINT('',(94.,-16.,10.4));
#1434 = DIRECTION('',(0.,0.,1.));
#1435 = DIRECTION('',(1.,0.,0.));
#1436 = ORIENTED_EDGE('',*,*,#1423,.T.);
#1437 = CYLINDRICAL_SURFACE('',#1438,1.2);
#1438 = AXIS2_PLACEMENT_3D('',#1439,#1440,#1441);
#1439 = CARTESIAN_POINT('',(94.,-16.,10.));
#1440 = DIRECTION('',(0.,0.,1.));
#1441 = DIRECTION('',(1.,0.,0.));
#1442 = ADVANCED_FACE('',(#1443),#1462,.T.);
#1443 = FACE_BOUND('',#1444,.T.);
#1444 = EDGE_LOOP('',(#1445,#1446,#1454,#1461));
#1445 = ORIENTED_EDGE('',*,*,#1092,.F.);
#1446 = ORIENTED_EDGE('',*,*,#1447,.F.);
#1447 = EDGE_CURVE('',#1448,#1093,#1450,.T.);
#1448 = VERTEX_POINT('',#1449);
#1449 = CARTESIAN_POINT('',(4.5,-18.,10.4));
#1450 = LINE('',#1451,#1452);
#1451 = CARTESIAN_POINT('',(4.5,-18.,10.4));
#1452 = VECTOR('',#1453,1.);
#1453 = DIRECTION('',(0.,0.,1.));
#1454 = ORIENTED_EDGE('',*,*,#1455,.T.);
#1455 = EDGE_CURVE('',#1448,#1448,#1456,.T.);
#1456 = CIRCLE('',#1457,3.5);
#1457 = AXIS2_PLACEMENT_3D('',#1458,#1459,#1460);
#1458 = CARTESIAN_POINT('',(1.,-18.,10.4));
#1459 = DIRECTION('',(0.,0.,1.));
#1460 = DIRECTION('',(1.,0.,0.));
#1461 = ORIENTED_EDGE('',*,*,#1447,.T.);
#1462 = CYLINDRICAL_SURFACE('',#1463,3.5);
#1463 = AXIS2_PLACEMENT_3D('',#1464,#1465,#1466);
#1464 = CARTESIAN_POINT('',(1.,-18.,10.4));
#1465 = DIRECTION('',(0.,0.,1.));
#1466 = DIRECTION('',(1.,0.,0.));
#1467 = ADVANCED_FACE('',(#1468),#1487,.T.);
#1468 = FACE_BOUND('',#1469,.T.);
#1469 = EDGE_LOOP('',(#1470,#1471,#1479,#1486));
#1470 = ORIENTED_EDGE('',*,*,#1161,.F.);
#1471 = ORIENTED_EDGE('',*,*,#1472,.F.);
#1472 = EDGE_CURVE('',#1473,#1162,#1475,.T.);
#1473 = VERTEX_POINT('',#1474);
#1474 = CARTESIAN_POINT('',(4.5,18.,10.4));
#1475 = LINE('',#1476,#1477);
#1476 = CARTESIAN_POINT('',(4.5,18.,10.4));
#1477 = VECTOR('',#1478,1.);
#1478 = DIRECTION('',(0.,0.,1.));
#1479 = ORIENTED_EDGE('',*,*,#1480,.T.);
#1480 = EDGE_CURVE('',#1473,#1473,#1481,.T.);
#1481 = CIRCLE('',#1482,3.5);
#1482 = AXIS2_PLACEMENT_3D('',#1483,#1484,#1485);
#1483 = CARTESIAN_POINT('',(1.,18.,10.4));
#1484 = DIRECTION('',(0.,0.,1.));
#1485 = DIRECTION('',(1.,0.,0.));
#1486 = ORIENTED_EDGE('',*,*,#1472,.T.);
#1487 = CYLINDRICAL_SURFACE('',#1488,3.5);
#1488 = AXIS2_PLACEMENT_3D('',#1489,#1490,#1491);
#1489 = CARTESIAN_POINT('',(1.,18.,10.4));
#1490 = DIRECTION('',(0.,0.,1.));
#1491 = DIRECTION('',(1.,0.,0.));
#1492 = ADVANCED_FACE('',(#1493),#1512,.T.);
#1493 = FACE_BOUND('',#1494,.T.);
#1494 = EDGE_LOOP('',(#1495,#1496,#1504,#1511));
#1495 = ORIENTED_EDGE('',*,*,#1230,.F.);
#1496 = ORIENTED_EDGE('',*,*,#1497,.F.);
#1497 = EDGE_CURVE('',#1498,#1231,#1500,.T.);
#1498 = VERTEX_POINT('',#1499);
#1499 = CARTESIAN_POINT('',(97.5,-16.,10.4));
#1500 = LINE('',#1501,#1502);
#1501 = CARTESIAN_POINT('',(97.5,-16.,10.4));
#1502 = VECTOR('',#1503,1.);
#1503 = DIRECTION('',(0.,0.,1.));
#1504 = ORIENTED_EDGE('',*,*,#1505,.T.);
#1505 = EDGE_CURVE('',#1498,#1498,#1506,.T.);
#1506 = CIRCLE('',#1507,3.5);
#1507 = AXIS2_PLACEMENT_3D('',#1508,#1509,#1510);
#1508 = CARTESIAN_POINT('',(94.,-16.,10.4));
#1509 = DIRECTION('',(0.,0.,1.));
#1510 = DIRECTION('',(1.,0.,0.));
#1511 = ORIENTED_EDGE('',*,*,#1497,.T.);
#1512 = CYLINDRICAL_SURFACE('',#1513,3.5);
#1513 = AXIS2_PLACEMENT_3D('',#1514,#1515,#1516);
#1514 = CARTESIAN_POINT('',(94.,-16.,10.4));
#1515 = DIRECTION('',(0.,0.,1.));
#1516 = DIRECTION('',(1.,0.,0.));
#1517 = ADVANCED_FACE('',(#1518),#1537,.T.);
#1518 = FACE_BOUND('',#1519,.T.);
#1519 = EDGE_LOOP('',(#1520,#1521,#1529,#1536));
#1520 = ORIENTED_EDGE('',*,*,#1299,.F.);
#1521 = ORIENTED_EDGE('',*,*,#1522,.F.);
#1522 = EDGE_CURVE('',#1523,#1300,#1525,.T.);
#1523 = VERTEX_POINT('',#1524);
#1524 = CARTESIAN_POINT('',(97.5,16.,10.4));
#1525 = LINE('',#1526,#1527);
#1526 = CARTESIAN_POINT('',(97.5,16.,10.4));
#1527 = VECTOR('',#1528,1.);
#1528 = DIRECTION('',(0.,0.,1.));
#1529 = ORIENTED_EDGE('',*,*,#1530,.T.);
#1530 = EDGE_CURVE('',#1523,#1523,#1531,.T.);
#1531 = CIRCLE('',#1532,3.5);
#1532 = AXIS2_PLACEMENT_3D('',#1533,#1534,#1535);
#1533 = CARTESIAN_POINT('',(94.,16.,10.4));
#1534 = DIRECTION('',(0.,0.,1.));
#1535 = DIRECTION('',(1.,0.,0.));
#1536 = ORIENTED_EDGE('',*,*,#1522,.T.);
#1537 = CYLINDRICAL_SURFACE('',#1538,3.5);
#1538 = AXIS2_PLACEMENT_3D('',#1539,#1540,#1541);
#1539 = CARTESIAN_POINT('',(94.,16.,10.4));
#1540 = DIRECTION('',(0.,0.,1.));
#1541 = DIRECTION('',(1.,0.,0.));
#1542 = ADVANCED_FACE('',(#1543,#1546),#1549,.F.);
#1543 = FACE_BOUND('',#1544,.F.);
#1544 = EDGE_LOOP('',(#1545));
#1545 = ORIENTED_EDGE('',*,*,#1455,.T.);
#1546 = FACE_BOUND('',#1547,.F.);
#1547 = EDGE_LOOP('',(#1548));
#1548 = ORIENTED_EDGE('',*,*,#1382,.F.);
#1549 = PLANE('',#1550);
#1550 = AXIS2_PLACEMENT_3D('',#1551,#1552,#1553);
#1551 = CARTESIAN_POINT('',(1.,-18.,10.4));
#1552 = DIRECTION('',(0.,0.,1.));
#1553 = DIRECTION('',(1.,0.,0.));
#1554 = ADVANCED_FACE('',(#1555,#1558),#1561,.F.);
#1555 = FACE_BOUND('',#1556,.F.);
#1556 = EDGE_LOOP('',(#1557));
#1557 = ORIENTED_EDGE('',*,*,#1480,.T.);
#1558 = FACE_BOUND('',#1559,.F.);
#1559 = EDGE_LOOP('',(#1560));
#1560 = ORIENTED_EDGE('',*,*,#1406,.F.);
#1561 = PLANE('',#1562);
#1562 = AXIS2_PLACEMENT_3D('',#1563,#1564,#1565);
#1563 = CARTESIAN_POINT('',(1.,18.,10.4));
#1564 = DIRECTION('',(0.,0.,1.));
#1565 = DIRECTION('',(1.,0.,0.));
#1566 = ADVANCED_FACE('',(#1567,#1570),#1573,.F.);
#1567 = FACE_BOUND('',#1568,.F.);
#1568 = EDGE_LOOP('',(#1569));
#1569 = ORIENTED_EDGE('',*,*,#1505,.T.);
#1570 = FACE_BOUND('',#1571,.F.);
#1571 = EDGE_LOOP('',(#1572));
#1572 = ORIENTED_EDGE('',*,*,#1430,.F.);
#1573 = PLANE('',#1574);
#1574 = AXIS2_PLACEMENT_3D('',#1575,#1576,#1577);
#1575 = CARTESIAN_POINT('',(94.,-16.,10.4));
#1576 = DIRECTION('',(0.,0.,1.));
#1577 = DIRECTION('',(1.,0.,0.));
#1578 = ADVANCED_FACE('',(#1579,#1582),#1593,.F.);
#1579 = FACE_BOUND('',#1580,.F.);
#1580 = EDGE_LOOP('',(#1581));
#1581 = ORIENTED_EDGE('',*,*,#1530,.T.);
#1582 = FACE_BOUND('',#1583,.F.);
#1583 = EDGE_LOOP('',(#1584));
#1584 = ORIENTED_EDGE('',*,*,#1585,.F.);
#1585 = EDGE_CURVE('',#1586,#1586,#1588,.T.);
#1586 = VERTEX_POINT('',#1587);
#1587 = CARTESIAN_POINT('',(95.2,16.,10.4));
#1588 = CIRCLE('',#1589,1.2);
#1589 = AXIS2_PLACEMENT_3D('',#1590,#1591,#1592);
#1590 = CARTESIAN_POINT('',(94.,16.,10.4));
#1591 = DIRECTION('',(0.,0.,1.));
#1592 = DIRECTION('',(1.,0.,0.));
#1593 = PLANE('',#1594);
#1594 = AXIS2_PLACEMENT_3D('',#1595,#1596,#1597);
#1595 = CARTESIAN_POINT('',(94.,16.,10.4));
#1596 = DIRECTION('',(0.,0.,1.));
#1597 = DIRECTION('',(1.,0.,0.));
#1598 = ADVANCED_FACE('',(#1599),#1609,.F.);
#1599 = FACE_BOUND('',#1600,.F.);
#1600 = EDGE_LOOP('',(#1601,#1602,#1607,#1608));
#1601 = ORIENTED_EDGE('',*,*,#1005,.F.);
#1602 = ORIENTED_EDGE('',*,*,#1603,.F.);
#1603 = EDGE_CURVE('',#1586,#1006,#1604,.T.);
#1604 = B_SPLINE_CURVE_WITH_KNOTS('',1,(#1605,#1606),.UNSPECIFIED.,.F.,
  .F.,(2,2),(0.4,9.673581288898),.PIECEWISE_BEZIER_KNOTS.);
#1605 = CARTESIAN_POINT('',(95.2,16.,10.4));
#1606 = CARTESIAN_POINT('',(95.2,16.,19.673581288898));
#1607 = ORIENTED_EDGE('',*,*,#1585,.T.);
#1608 = ORIENTED_EDGE('',*,*,#1603,.T.);
#1609 = CYLINDRICAL_SURFACE('',#1610,1.2);
#1610 = AXIS2_PLACEMENT_3D('',#1611,#1612,#1613);
#1611 = CARTESIAN_POINT('',(94.,16.,10.));
#1612 = DIRECTION('',(0.,0.,1.));
#1613 = DIRECTION('',(1.,0.,0.));
#1614 = ( GEOMETRIC_REPRESENTATION_CONTEXT(3) 
GLOBAL_UNCERTAINTY_ASSIGNED_CONTEXT((#1618)) 
GLOBAL_UNIT_ASSIGNED_CONTEXT((#1615,#1616,#1617)) REPRESENTATION_CONTEXT
('Context #1','3D Context with UNIT and UNCERTAINTY') );
#1615 = ( LENGTH_UNIT() NAMED_UNIT(*) SI_UNIT(.MILLI.,.METRE.) );
#1616 = ( NAMED_UNIT(*) PLANE_ANGLE_UNIT() SI_UNIT($,.RADIAN.) );
#1617 = ( NAMED_UNIT(*) SI_UNIT($,.STERADIAN.) SOLID_ANGLE_UNIT() );
#1618 = UNCERTAINTY_MEASURE_WITH_UNIT(LENGTH_MEASURE(1.E-06),#1615,
  'distance_accuracy_value','confusion accuracy');
#1619 = PRODUCT_RELATED_PRODUCT_CATEGORY('part',$,(#7));
ENDSEC;
END-ISO-10303-21;
